<svg width="268" height="203" viewBox="0 0 268 203" fill="none" xmlns="http://www.w3.org/2000/svg">
<path d="M230.25 139.05H249.225L226.725 116.213H207.713L198.975 121.238L220.8 133.613L230.25 139.05Z" fill="#BAC2FF"/>
<path d="M247.388 138.638L216.9 121.087C216.113 120.637 215.663 119.812 215.663 118.912L216.15 71.1375C216.188 69.225 218.213 68.0625 219.863 69L247.275 84.825C249.675 86.2125 251.138 88.7625 251.138 91.5V136.5C251.138 138.412 249.075 139.613 247.388 138.638Z" fill="#343FFC" stroke="#2635B5" stroke-miterlimit="10" stroke-linecap="round" stroke-linejoin="round"/>
<path d="M256.313 80.0249L228.6 64.0124C227.813 63.5624 226.95 63.5999 226.275 63.9374L226.05 64.0499L217.575 68.9624C218.25 68.6249 219.113 68.5874 219.863 69.0374L224.925 71.9624L227.588 73.4999L243.038 82.4249L246.75 84.5624L247.575 85.0499C249.788 86.3249 251.138 88.6499 251.138 91.1999V111.787V113.1C251.138 114 251.138 114.525 251.138 114.525V136.95C251.1 137.4 250.875 138.037 250.088 138.562L258.938 133.425C259.5 133.087 259.875 132.45 259.875 131.812V130.95V108.112V86.2124C259.838 83.6249 258.488 81.2999 256.313 80.0249Z" fill="white" stroke="#2635B5" stroke-miterlimit="10" stroke-linecap="round" stroke-linejoin="round"/>
<path d="M226.275 63.9375H226.238" stroke="#2635B5" stroke-miterlimit="10" stroke-linecap="round" stroke-linejoin="round"/>
<path d="M231.975 71.025L227.625 73.5375V78.5625L224.925 77.025V72L229.313 69.45L231.975 71.025Z" stroke="#2635B5" stroke-miterlimit="10" stroke-linecap="round" stroke-linejoin="round"/>
<path d="M248.438 80.5125L246.75 81.4875L244.088 83.025V88.0875L241.388 86.5125V81.4875L245.775 78.975L248.438 80.5125Z" stroke="#2635B5" stroke-miterlimit="10" stroke-linecap="round" stroke-linejoin="round"/>
<path d="M248.438 74.475V80.5125L246.75 81.4875V75.45C246.75 74.8125 246.675 74.2125 246.525 73.6125C246.338 72.8625 246 72.1875 245.588 71.55C245.438 71.2875 245.25 71.0625 245.025 70.8375C244.913 70.725 244.838 70.6125 244.725 70.5C244.388 70.1625 244.05 69.8625 243.638 69.6C243.525 69.525 243.375 69.4125 243.225 69.3375L232.2 62.9625L231.225 62.4C230.738 62.1375 230.213 62.025 229.725 62.1C229.463 62.1375 229.2 62.2125 228.975 62.325L230.25 61.575L230.663 61.35C231.338 61.05 232.163 61.0125 232.875 61.4625L244.875 68.4C247.088 69.675 248.438 71.9625 248.438 74.475Z" fill="white" stroke="#2635B5" stroke-miterlimit="10" stroke-linecap="round" stroke-linejoin="round"/>
<path d="M231.038 64.3124V70.4624L229.35 71.4374V64.3499C229.35 63.8999 229.838 63.6374 230.213 63.8624L231.038 64.3124Z" fill="white" stroke="#2635B5" stroke-miterlimit="10" stroke-linecap="round" stroke-linejoin="round"/>
<path d="M246.75 81.4874V75.4499C246.75 72.9374 245.4 70.6124 243.225 69.3749L231.225 62.4374C229.613 61.4999 227.588 62.6624 227.588 64.5374V70.4249" stroke="#2635B5" stroke-miterlimit="10" stroke-linecap="round" stroke-linejoin="round"/>
<path d="M246.75 75.4499V81.4874L245.025 80.4749V75.1499C245.025 73.4249 244.125 71.8499 242.625 70.9874L230.175 63.8249C229.8 63.5999 229.313 63.8624 229.313 64.3124V71.3999L227.588 70.3874V64.4999C227.588 62.6249 229.613 61.4624 231.225 62.3999L243.225 69.3374C245.438 70.6124 246.75 72.9374 246.75 75.4499Z" fill="#343FFC" stroke="#2635B5" stroke-miterlimit="10" stroke-linecap="round" stroke-linejoin="round"/>
<path d="M259.838 97.2L253.95 100.612C253.163 101.062 252.713 101.887 252.713 102.787V113.662V136.912" fill="white"/>
<path d="M259.838 97.2L253.95 100.612C253.163 101.062 252.713 101.887 252.713 102.787V113.662V136.912" stroke="#2635B5" stroke-miterlimit="10" stroke-linecap="round" stroke-linejoin="round"/>
<path d="M259.838 102.225L252.713 106.35" stroke="#2635B5" stroke-miterlimit="10" stroke-linecap="round" stroke-linejoin="round"/>
<path d="M258.9 82.6124L250.163 87.6749" stroke="#2635B5" stroke-miterlimit="10" stroke-linecap="round" stroke-linejoin="round"/>
<path d="M225 121.162L223.95 120.525C223.688 120.375 223.538 120.075 223.538 119.737V81.4874C223.538 80.7749 224.288 80.3249 224.888 80.6999L225.938 81.3374C226.2 81.4874 226.35 81.7874 226.35 82.1249V120.375C226.35 121.087 225.6 121.537 225 121.162Z" stroke="white" stroke-miterlimit="10" stroke-linecap="round" stroke-linejoin="round"/>
<path d="M232.838 125.55L231.787 124.913C231.525 124.763 231.375 124.463 231.375 124.125V85.875C231.375 85.1625 232.125 84.7125 232.725 85.0875L233.775 85.725C234.038 85.875 234.188 86.175 234.188 86.5125V124.763C234.188 125.513 233.438 125.925 232.838 125.55Z" stroke="white" stroke-miterlimit="10" stroke-linecap="round" stroke-linejoin="round"/>
<path d="M240.825 130.35L239.775 129.712C239.513 129.562 239.363 129.262 239.363 128.925V90.6749C239.363 89.9624 240.113 89.5124 240.713 89.8874L241.763 90.5249C242.025 90.6749 242.175 90.9749 242.175 91.3124V129.562C242.175 130.275 241.425 130.687 240.825 130.35Z" stroke="white" stroke-miterlimit="10" stroke-linecap="round" stroke-linejoin="round"/>
<path d="M258.3 135.45L259.613 136.2" stroke="#2635B5" stroke-miterlimit="10" stroke-linecap="round" stroke-linejoin="round"/>
<path d="M261.338 129.338L260.325 128.7C260.325 128.7 260.325 128.7 260.288 128.7C259.763 128.4 259.05 128.475 258.3 128.925C256.725 129.825 255.45 132.038 255.45 133.838C255.45 134.7 255.75 135.338 256.238 135.638H256.275C256.275 135.638 256.313 135.638 256.313 135.675L257.813 136.538L258.338 135.45C259.875 134.513 261.15 132.338 261.113 130.575C261.113 130.35 261.075 130.125 261.038 129.9L261.338 129.338Z" fill="#343FFC" stroke="#2635B5" stroke-miterlimit="10" stroke-linecap="round" stroke-linejoin="round"/>
<path d="M261.592 134.095C262.705 132.179 262.708 130.103 261.598 129.457C260.488 128.812 258.685 129.842 257.571 131.758C256.458 133.674 256.455 135.751 257.565 136.396C258.676 137.041 260.478 136.011 261.592 134.095Z" fill="white" stroke="#2635B5" stroke-miterlimit="10" stroke-linecap="round" stroke-linejoin="round"/>
<path d="M260.457 133.435C260.946 132.594 260.951 131.684 260.468 131.403C259.984 131.122 259.196 131.576 258.706 132.418C258.217 133.259 258.213 134.169 258.696 134.45C259.18 134.731 259.968 134.277 260.457 133.435Z" fill="#343FFC" stroke="#2635B5" stroke-miterlimit="10" stroke-linecap="round" stroke-linejoin="round"/>
<path d="M104.587 141C137.31 141 163.837 126.326 163.837 108.225C163.837 90.1238 137.31 75.45 104.587 75.45C71.8645 75.45 45.3374 90.1238 45.3374 108.225C45.3374 126.326 71.8645 141 104.587 141Z" fill="#BAC2FF"/>
<path d="M123.6 139.163C154.853 139.163 180.188 113.827 180.188 82.5751C180.188 51.3226 154.853 25.9875 123.6 25.9875C92.3478 25.9875 67.0127 51.3226 67.0127 82.5751C67.0127 113.827 92.3478 139.163 123.6 139.163Z" fill="white"/>
<path d="M180.15 83.7C179.85 99.1125 173.288 114.338 160.725 125.25C137.138 145.763 101.4 143.288 80.9252 119.7C60.5252 96.2625 62.8502 60.825 86.0252 40.275C76.6127 58.575 78.7127 81.5625 93.0377 98.0625C111.863 119.663 144.6 121.95 166.2 103.125C172.538 97.65 177.188 90.975 180.15 83.7Z" fill="#BAC2FF"/>
<path d="M123.6 139.163C154.853 139.163 180.188 113.827 180.188 82.5751C180.188 51.3226 154.853 25.9875 123.6 25.9875C92.3478 25.9875 67.0127 51.3226 67.0127 82.5751C67.0127 113.827 92.3478 139.163 123.6 139.163Z" stroke="#2635B5" stroke-miterlimit="10" stroke-linecap="round" stroke-linejoin="round"/>
<path d="M154.237 125.963C154.237 125.963 162.525 123.263 167.025 115.988C171.525 108.713 169.875 107.85 174.637 100.688C179.4 93.5251 178.537 73.7251 178.537 73.7251C178.537 73.7251 176.925 87.3376 175.612 88.6501C174.3 89.9626 175.125 91.3876 174.6 91.9876C174.075 92.5876 172.162 93.0376 171.187 94.4251C170.212 95.8126 169.2 92.9251 165.3 95.6626C161.4 98.4001 157.762 97.8001 157.237 101.888C156.712 106.013 158.662 109.463 157.687 110.85C156.712 112.238 155.175 111.113 155.212 116.25C155.25 121.388 150.375 121.388 154.237 125.963Z" fill="#343FFC" stroke="#2635B5" stroke-miterlimit="10" stroke-linecap="round" stroke-linejoin="round"/>
<path d="M108.487 88.9876C106.65 91.0501 106.687 94.2001 108.562 96.2251C109.425 97.1626 110.4 98.3626 111.412 99.8251C113.962 103.5 118.762 103.35 121.875 104.775C124.987 106.163 126.187 108 130.462 105.938C134.737 103.875 135.412 107.025 138.637 103.163C141.862 99.3001 140.362 98.9626 137.325 93.0376C134.287 87.1126 129.825 83.1376 133.5 81.3001C137.175 79.4626 136.725 78.2251 137.662 76.1251C138.6 73.9876 140.25 73.6876 144.787 72.1126C149.325 70.5376 150.975 69.3751 153.937 66.3001C156.862 63.1876 159.975 59.3251 154.425 56.1376C148.875 52.9501 144.937 55.9876 141.637 52.8376C138.337 49.6876 133.575 55.5376 130.65 54.7501C127.725 53.9626 115.312 48.7876 114.3 52.8376C113.325 56.8876 117.45 61.4251 112.462 64.9876C107.475 68.5501 106.725 66.4501 106.912 69.7126C107.1 72.9751 102.075 74.1751 104.775 77.1001C107.475 80.0251 111.225 86.0626 108.637 88.9126C108.562 88.9126 108.525 88.9501 108.487 88.9876Z" fill="#343FFC" stroke="#2635B5" stroke-miterlimit="10" stroke-linecap="round" stroke-linejoin="round"/>
<path d="M126.488 48.0375C128.025 47.5875 129.6 47.3625 131.175 47.475C131.738 47.5125 132.263 47.55 132.713 47.7C134.55 48.1875 140.4 47.925 141.413 47.175C142.388 46.425 136.313 42.15 131.625 42.825C126.938 43.5 125.363 43.35 123.975 43.275C122.663 43.1625 119.625 50.025 126.488 48.0375Z" fill="#343FFC" stroke="#2635B5" stroke-miterlimit="10" stroke-linecap="round" stroke-linejoin="round"/>
<path d="M140.212 130.538C140.212 130.538 144.562 127.988 145.275 126.825C145.987 125.663 146.25 124.688 147.9 125.4C149.587 126.113 150.975 126.638 148.837 128.1C146.7 129.563 146.887 130.5 146.025 131.4C145.162 132.3 144.412 131.1 143.325 130.988C142.275 130.95 138.937 133.013 140.212 130.538Z" fill="#343FFC" stroke="#2635B5" stroke-miterlimit="10" stroke-linecap="round" stroke-linejoin="round"/>
<path d="M89.9998 106.688C90.1498 106.913 90.3748 107.025 90.6373 107.063C91.1623 107.138 92.2873 107.138 93.1873 105.975C94.4248 104.363 95.3248 104.925 96.7873 105.225C98.2498 105.525 94.3498 102.338 93.8248 102.338C93.2998 102.338 93.2998 103.688 92.1748 104.175C91.1623 104.625 89.4373 105.825 89.9998 106.688Z" fill="#343FFC" stroke="#2635B5" stroke-miterlimit="10" stroke-linecap="round" stroke-linejoin="round"/>
<path d="M110.775 129.075C109.613 131.025 109.088 129.563 106.8 130.988C104.513 132.413 107.4 132.45 106.5 132.863C105.6 133.275 102.338 133.088 105.863 135.15C109.388 137.213 117.788 136.05 116.775 137.663C115.763 139.238 114.525 137.175 112.838 138C112.763 138.038 112.688 138.075 112.65 138.113C121.988 139.95 131.738 139.425 140.925 136.5C140.663 136.125 140.775 135.525 141.675 134.475C144.9 130.65 139.875 136.463 132.3 134.963C124.725 133.463 119.475 132.6 121.388 132.263C123.338 131.888 119.813 129.825 118.688 129.9C117.563 129.975 119.775 132.713 117.863 132.863C115.95 132.975 111.938 127.125 110.775 129.075Z" fill="#343FFC" stroke="#2635B5" stroke-miterlimit="10" stroke-linecap="round" stroke-linejoin="round"/>
<path d="M86.4748 39.9001C71.2498 53.1751 64.7998 72.7876 67.7248 91.3876L68.4373 93.9751C68.4373 93.9751 70.8373 91.5001 70.9873 87.6376C71.1373 83.7751 71.4373 78.7501 72.4873 82.6126C73.5748 86.4751 73.7998 88.3126 75.3748 87.7501C76.9498 87.1876 77.5873 88.6126 77.1373 90.0001C76.6873 91.3876 74.9998 88.1626 74.9998 91.6876C74.9998 95.2501 75.0373 97.3876 80.8873 99.0376C86.7373 100.688 84.5998 102.375 86.7373 100.688C88.8748 99.0001 85.4998 97.9876 86.2498 96.9001C86.9623 95.8126 88.6498 95.1001 85.6498 94.1251C82.6123 93.1501 82.8373 95.6626 81.1498 95.1376C79.4623 94.6501 77.9248 93.5251 80.9248 93.7126C83.9248 93.9001 80.7748 89.8126 81.1123 89.1376C81.4123 88.4626 83.6998 91.3876 85.9498 91.0126C88.1998 90.6376 89.6998 95.4376 89.7373 97.0501C89.7748 98.6626 89.3623 98.7001 91.8748 99.2251C94.3873 99.7876 95.4373 101.175 96.7123 102.9C97.9873 104.625 99.0373 102.9 99.2623 102C99.4873 101.1 101.25 99.1126 101.812 103.013C102.375 106.913 107.4 104.175 108.187 105.3C108.975 106.388 112.162 104.925 108.45 101.363C104.737 97.8001 98.3248 96.6376 98.6998 94.9876C99.0748 93.3376 97.9873 88.2751 100.762 87.1876C103.5 86.1001 99.2248 84.7126 97.9873 85.8376C96.7498 86.9626 97.0498 84.6751 98.3623 82.9876C99.6748 81.3001 101.362 79.0876 97.5748 80.4001C93.7873 81.7126 89.1373 80.4751 89.3248 79.0501C89.5123 77.6251 91.3123 76.1626 89.4373 73.9501C87.5623 71.7376 92.3623 71.8126 92.0998 75.7501C91.8373 79.6501 97.2373 77.2126 97.3873 78.8251C97.5373 80.4001 102.412 77.6251 96.4873 71.9251C90.5248 66.2251 101.362 67.0876 106.275 63.1876C111.187 59.2876 111.9 52.3501 106.275 51.8626C100.65 51.3751 100.012 52.2751 99.8623 55.7626C99.7123 59.2126 98.2873 60.2626 97.7248 60.1876C97.1623 60.1126 96.4498 56.1751 97.4248 53.5126C98.3998 50.8126 96.2248 48.1501 97.2748 46.8376C98.3248 45.5251 102.787 44.9626 105.562 38.4751C107.737 33.3001 94.9873 41.0251 93.6373 39.9001C90.2998 37.1626 105.6 34.3501 109.162 30.1126C110.362 28.6876 106.95 29.1376 101.887 30.3376C96.3748 32.6251 91.1623 35.8126 86.4748 39.9001Z" fill="#343FFC" stroke="#2635B5" stroke-miterlimit="10" stroke-linecap="round" stroke-linejoin="round"/>
<path d="M93.9002 119.813C92.8877 118.275 87.9752 118.35 86.3252 116.85C84.6752 115.35 81.5627 113.1 80.2127 111.713C78.8627 110.325 78.1877 110.738 77.9627 111.375C77.7377 112.013 75.8252 109.5 74.9252 109.088C74.4752 108.863 73.6127 108.225 72.8252 107.588C74.6252 111.263 76.8752 114.788 79.5377 118.125C80.3252 118.5 81.0752 118.875 81.6377 119.25C83.8502 120.825 84.3377 120.263 86.9627 121.688C89.5877 123.113 91.6502 124.163 93.6752 123.825C95.7377 123.45 94.9127 121.313 93.9002 119.813Z" fill="#343FFC" stroke="#2635B5" stroke-miterlimit="10" stroke-linecap="round" stroke-linejoin="round"/>
<path d="M104.662 131.063C104.85 130.275 100.725 130.35 99.8999 129C99.0749 127.65 96.9374 126.863 95.8499 127.688C94.7999 128.513 93.8999 126.113 91.1249 127.913C90.8624 128.1 90.6374 128.288 90.5249 128.475C91.9874 129.525 93.4499 130.5 94.9874 131.4C95.0249 131.363 95.0999 131.325 95.1374 131.25C95.1374 131.25 95.9249 129.638 97.7624 130.313C99.5999 131.025 99.8249 133.2 101.362 132.113C102.862 131.063 104.475 131.85 104.662 131.063Z" fill="#343FFC" stroke="#2635B5" stroke-miterlimit="10" stroke-linecap="round" stroke-linejoin="round"/>
<path d="M167.962 65.025C167.962 65.025 148.575 75.45 120.862 93.6C102.262 105.75 80.4749 122.4 63.7499 117.3C45.8249 111.825 68.1374 91.575 68.1374 91.575" stroke="#2635B5" stroke-width="2" stroke-miterlimit="10" stroke-linecap="round" stroke-linejoin="round" stroke-dasharray="6 6"/>
<path d="M149.437 132.938C149.437 132.938 184.125 150.113 163.387 104.85C163.387 104.85 126.112 32.6625 95.6249 24.0375C71.3249 17.175 82.1999 40.8 82.1999 40.8" stroke="#2635B5" stroke-width="2" stroke-miterlimit="10" stroke-linecap="round" stroke-linejoin="round" stroke-dasharray="6 6"/>
<path d="M67.1249 37.0874C66.1874 37.0874 65.3249 37.3499 64.6124 37.8374C63.7874 37.3874 62.8124 37.3874 62.0249 37.8374L60.7124 38.5874C60.2999 38.8124 59.9624 39.1499 59.7374 39.5624C59.5124 39.9749 59.3999 40.4249 59.3999 40.8749C59.3999 41.8124 59.8874 42.6749 60.7124 43.1624L64.5749 45.3749C65.2874 45.8624 66.1874 46.1624 67.1249 46.1624C69.6374 46.1624 71.6999 44.1374 71.6999 41.5874C71.6624 39.1499 69.6374 37.0874 67.1249 37.0874Z" fill="white"/>
<path d="M71.3623 43.2749C70.7248 44.9999 69.0373 46.1999 67.0873 46.1999C66.1498 46.1999 65.2498 45.8999 64.5373 45.4124L60.6748 43.1624C59.8498 42.7124 59.3623 41.8124 59.3623 40.8749C59.3623 40.3874 59.4748 39.9374 59.6998 39.5624C59.8123 39.3374 59.9998 39.1499 60.1873 38.9624C60.1498 39.1874 60.1123 39.3749 60.1123 39.5999C60.1123 40.5374 60.5998 41.3999 61.4248 41.8874L65.2873 44.1374C65.9998 44.6249 66.8998 44.9249 67.8373 44.9249C69.2623 44.9249 70.5373 44.2874 71.3623 43.2749Z" fill="#BAC2FF"/>
<path d="M64.6124 37.8375C63.7874 37.3875 62.8124 37.3875 62.0249 37.8375L60.7124 38.5875C60.2999 38.8125 59.9624 39.15 59.7374 39.5625C59.5124 39.975 59.3999 40.425 59.3999 40.875C59.3999 41.8125 59.8874 42.675 60.7124 43.1625L64.5749 45.375L64.6499 45.4125L64.5749 45.375C65.3249 45.8625 66.1874 46.1625 67.1624 46.1625C69.6749 46.1625 71.7374 44.1375 71.7374 41.5875C71.7374 39.075 69.7124 37.0125 67.1624 37.0125C64.6499 37.0125 62.5874 39.0375 62.5874 41.5875" stroke="#2635B5" stroke-miterlimit="10" stroke-linecap="round" stroke-linejoin="round"/>
<path d="M237.45 44.2124C236.513 44.2124 235.65 44.4749 234.938 44.9624C234.113 44.5124 233.138 44.5124 232.35 44.9624L231.038 45.7124C230.625 45.9374 230.288 46.2749 230.063 46.6874C229.838 47.0999 229.725 47.5499 229.725 47.9999C229.725 48.9374 230.213 49.7999 231.038 50.2874L234.9 52.4999C235.613 52.9874 236.513 53.2874 237.45 53.2874C239.963 53.2874 242.025 51.2624 242.025 48.7124C242.025 46.2374 239.963 44.2124 237.45 44.2124Z" fill="white"/>
<path d="M241.725 50.3999C241.088 52.1249 239.4 53.3249 237.45 53.3249C236.513 53.3249 235.613 53.0249 234.9 52.5374L231.038 50.2874C230.213 49.8374 229.725 48.9374 229.725 47.9999C229.725 47.5124 229.838 47.0624 230.063 46.6874C230.175 46.4624 230.363 46.2749 230.55 46.0874C230.513 46.3124 230.475 46.4999 230.475 46.7249C230.475 47.6624 230.963 48.5249 231.788 49.0124L235.65 51.2624C236.363 51.7499 237.263 52.0499 238.2 52.0499C239.625 52.0499 240.863 51.4124 241.725 50.3999Z" fill="#BAC2FF"/>
<path d="M234.938 44.9625C234.113 44.5125 233.138 44.5125 232.35 44.9625L231.038 45.7125C230.625 45.9375 230.288 46.275 230.063 46.6875C229.838 47.1 229.725 47.55 229.725 48C229.725 48.9375 230.213 49.8 231.038 50.2875L234.9 52.5L234.975 52.5375L234.9 52.5C235.65 52.9875 236.513 53.2875 237.488 53.2875C240 53.2875 242.063 51.2625 242.063 48.7125C242.063 46.2 240.038 44.1375 237.488 44.1375C234.975 44.1375 232.913 46.1624 232.913 48.7125" stroke="#2635B5" stroke-miterlimit="10" stroke-linecap="round" stroke-linejoin="round"/>
<path d="M40.7626 82.3125C39.8251 82.3125 38.9626 82.575 38.2501 83.0625C37.4251 82.6125 36.4501 82.6125 35.6626 83.0625L34.3501 83.8125C33.9376 84.0375 33.6001 84.375 33.3751 84.7875C33.1501 85.2 33.0376 85.65 33.0376 86.1C33.0376 87.0375 33.5251 87.9 34.3501 88.3875L38.2126 90.6C38.9251 91.0875 39.8251 91.3875 40.7626 91.3875C43.2751 91.3875 45.3376 89.3625 45.3376 86.8125C45.3001 84.375 43.2751 82.3125 40.7626 82.3125Z" fill="white"/>
<path d="M45 88.5375C44.3625 90.2625 42.675 91.4625 40.725 91.4625C39.7875 91.4625 38.8875 91.1625 38.175 90.675L34.3125 88.425C33.4875 87.975 33 87.075 33 86.1375C33 85.65 33.1125 85.2 33.3375 84.825C33.45 84.6 33.6375 84.4125 33.825 84.225C33.7875 84.45 33.75 84.6375 33.75 84.8625C33.75 85.8 34.2375 86.6625 35.0625 87.15L38.925 89.4C39.6375 89.8875 40.5375 90.1875 41.475 90.1875C42.9 90.15 44.175 89.5125 45 88.5375Z" fill="#BAC2FF"/>
<path d="M38.2501 83.1C37.4251 82.65 36.4501 82.65 35.6626 83.1L34.3501 83.85C33.9376 84.075 33.6001 84.4125 33.3751 84.825C33.1501 85.2375 33.0376 85.6875 33.0376 86.1375C33.0376 87.075 33.5251 87.9375 34.3501 88.425L38.2126 90.6375L38.2876 90.675L38.2126 90.6375C38.9626 91.125 39.8251 91.425 40.8001 91.425C43.3126 91.425 45.3751 89.4 45.3751 86.85C45.3751 84.3 43.3501 82.275 40.8001 82.275C38.2876 82.275 36.2251 84.3 36.2251 86.85" stroke="#2635B5" stroke-miterlimit="10" stroke-linecap="round" stroke-linejoin="round"/>
<path d="M227.175 180.675L219.338 185.212C219.225 185.287 219.075 185.287 218.963 185.212C218.663 185.025 218.025 184.762 217.575 185.212C217.35 185.437 217.388 185.662 217.5 185.85C217.575 186.037 217.5 186.225 217.35 186.337L200.625 195.975C200.513 196.05 200.363 196.05 200.25 195.975L188.963 189.45C188.7 189.3 188.7 188.925 188.963 188.775L205.912 179.062C205.912 179.062 206.813 179.587 207.263 179.137C207.525 178.912 207.525 178.612 207.487 178.425C207.45 178.275 207.525 178.125 207.675 178.05L215.588 173.512C215.7 173.437 215.85 173.437 215.963 173.512L227.175 180C227.4 180.187 227.4 180.525 227.175 180.675Z" fill="#BAC2FF"/>
<path d="M226.725 181.425L214.612 176.85C214.5 176.812 214.35 176.812 214.237 176.925L207.187 182.7C207.075 182.812 207 182.962 207.075 183.112C207.15 183.3 207.187 183.6 206.962 183.862C206.587 184.35 205.612 184.012 205.612 184.012L190.5 196.387C190.275 196.575 190.35 196.95 190.612 197.025L202.8 201.6C202.875 201.637 202.912 201.637 202.987 201.637H203.025L206.962 200.812L204.975 200.062L218.025 189.337C218.175 189.225 218.212 189 218.1 188.812C217.987 188.625 217.912 188.4 218.1 188.137C218.475 187.612 219.112 187.762 219.45 187.912C219.562 187.95 219.712 187.95 219.825 187.837L226.8 182.1C227.062 181.912 226.987 181.537 226.725 181.425Z" fill="#BAC2FF"/>
<path d="M231.75 179.25L223.987 183.712C223.875 183.787 223.725 183.787 223.612 183.712C223.312 183.525 222.675 183.262 222.225 183.712C222.037 183.937 222.037 184.162 222.15 184.35C222.225 184.537 222.15 184.725 222 184.837L205.5 194.362C205.387 194.437 205.237 194.437 205.125 194.362L193.95 187.912C193.687 187.762 193.687 187.387 193.95 187.275L210.112 177.975L210.525 177.75C210.637 177.675 210.75 177.675 210.862 177.75C211.125 177.862 211.687 178.05 212.025 177.75C212.287 177.525 212.287 177.225 212.25 177.037C212.212 176.887 212.325 176.737 212.437 176.662L220.237 172.162C220.35 172.087 220.5 172.087 220.612 172.162L231.675 178.575C232.012 178.725 232.012 179.1 231.75 179.25Z" fill="white" stroke="#2635B5" stroke-miterlimit="10" stroke-linecap="round" stroke-linejoin="round"/>
<path d="M213.075 178.312L213.6 178.612" stroke="#2635B5" stroke-linecap="round" stroke-linejoin="round"/>
<path d="M214.612 179.213L220.35 182.513" stroke="#2635B5" stroke-linecap="round" stroke-linejoin="round" stroke-dasharray="3.21 3.21"/>
<path d="M220.875 182.812L221.4 183.112" stroke="#2635B5" stroke-linecap="round" stroke-linejoin="round"/>
<path d="M215.55 176.85L220.612 173.85" stroke="#2635B5" stroke-miterlimit="10" stroke-linecap="round" stroke-linejoin="round"/>
<path d="M216.525 177.45L221.55 174.45" stroke="#2635B5" stroke-miterlimit="10" stroke-linecap="round" stroke-linejoin="round"/>
<path d="M217.425 178.05L222.45 175.05" stroke="#2635B5" stroke-miterlimit="10" stroke-linecap="round" stroke-linejoin="round"/>
<path d="M218.362 178.575L223.425 175.575" stroke="#2635B5" stroke-miterlimit="10" stroke-linecap="round" stroke-linejoin="round"/>
<path d="M202.538 190.612L205.913 188.625" stroke="#2635B5" stroke-miterlimit="10" stroke-linecap="round" stroke-linejoin="round"/>
<path d="M203.513 191.212L208.05 188.512" stroke="#2635B5" stroke-miterlimit="10" stroke-linecap="round" stroke-linejoin="round"/>
<path d="M204.413 191.812L206.438 190.612" stroke="#2635B5" stroke-miterlimit="10" stroke-linecap="round" stroke-linejoin="round"/>
<path d="M205.388 192.337L210.413 189.337" stroke="#2635B5" stroke-miterlimit="10" stroke-linecap="round" stroke-linejoin="round"/>
<path d="M197.513 187.725L202.05 184.987" stroke="#2635B5" stroke-miterlimit="10" stroke-linecap="round" stroke-linejoin="round"/>
<path d="M198.413 188.287L200.4 187.087" stroke="#2635B5" stroke-miterlimit="10" stroke-linecap="round" stroke-linejoin="round"/>
<path d="M217.275 187.612L205.312 180.712L207.037 179.775L218.775 186.712L217.275 187.612Z" fill="#343FFC" stroke="#2635B5" stroke-miterlimit="10" stroke-linecap="round" stroke-linejoin="round"/>
<path d="M230.888 181.687L223.913 187.312C223.8 187.387 223.65 187.425 223.538 187.387C223.2 187.275 222.563 187.087 222.188 187.612C222 187.837 222.075 188.1 222.188 188.25C222.3 188.4 222.263 188.625 222.113 188.737L207.3 200.737C207.188 200.812 207.038 200.85 206.925 200.812L194.888 196.2C194.625 196.087 194.55 195.75 194.775 195.562L209.813 183.412C209.813 183.412 210.75 183.787 211.125 183.3C211.35 183.037 211.313 182.737 211.238 182.55C211.2 182.4 211.238 182.25 211.35 182.137L218.363 176.475C218.475 176.4 218.625 176.362 218.738 176.4L230.7 181.012C231.075 181.125 231.113 181.5 230.888 181.687Z" fill="white" stroke="#2635B5" stroke-miterlimit="10" stroke-linecap="round" stroke-linejoin="round"/>
<path d="M212.288 183.712L212.85 183.937" stroke="#2635B5" stroke-linecap="round" stroke-linejoin="round"/>
<path d="M213.975 184.35L220.163 186.712" stroke="#2635B5" stroke-linecap="round" stroke-linejoin="round" stroke-dasharray="3.21 3.21"/>
<path d="M220.725 186.937L221.288 187.125" stroke="#2635B5" stroke-linecap="round" stroke-linejoin="round"/>
<path d="M214.5 181.875L219 178.087" stroke="#2635B5" stroke-miterlimit="10" stroke-linecap="round" stroke-linejoin="round"/>
<path d="M215.55 182.325L220.088 178.537" stroke="#2635B5" stroke-miterlimit="10" stroke-linecap="round" stroke-linejoin="round"/>
<path d="M216.525 182.775L221.063 178.987" stroke="#2635B5" stroke-miterlimit="10" stroke-linecap="round" stroke-linejoin="round"/>
<path d="M217.575 183.15L222.075 179.362" stroke="#2635B5" stroke-miterlimit="10" stroke-linecap="round" stroke-linejoin="round"/>
<path d="M203.85 197.513L206.813 195" stroke="#2635B5" stroke-miterlimit="10" stroke-linecap="round" stroke-linejoin="round"/>
<path d="M204.9 197.962L208.95 194.55" stroke="#2635B5" stroke-miterlimit="10" stroke-linecap="round" stroke-linejoin="round"/>
<path d="M205.875 198.412L207.675 196.875" stroke="#2635B5" stroke-miterlimit="10" stroke-linecap="round" stroke-linejoin="round"/>
<path d="M206.888 198.75L211.388 195" stroke="#2635B5" stroke-miterlimit="10" stroke-linecap="round" stroke-linejoin="round"/>
<path d="M198.413 195.45L202.463 192.037" stroke="#2635B5" stroke-miterlimit="10" stroke-linecap="round" stroke-linejoin="round"/>
<path d="M199.388 195.862L201.188 194.362" stroke="#2635B5" stroke-miterlimit="10" stroke-linecap="round" stroke-linejoin="round"/>
<path d="M217.875 192.225L205.013 187.312L206.588 186.075L219.225 191.1L217.875 192.225Z" fill="#343FFC" stroke="#2635B5" stroke-miterlimit="10" stroke-linecap="round" stroke-linejoin="round"/>
<path d="M263.325 155.663L250.125 149.888C249.938 149.813 249.713 149.813 249.525 149.963L230.513 164.138C230.138 164.4 230.213 164.963 230.625 165.15L243.525 170.963C243.638 171 243.788 171.038 243.9 171L248.625 169.8L246.638 169.05L263.438 156.713C263.813 156.413 263.738 155.85 263.325 155.663Z" fill="#BAC2FF"/>
<path d="M230.438 158.1L242.625 165.338C242.813 165.45 243.037 165.45 243.225 165.338L264 153.375C264.413 153.15 264.413 152.55 264 152.325L251.513 145.125C251.325 145.013 251.1 145.013 250.912 145.125L230.438 157.05C230.062 157.313 230.062 157.875 230.438 158.1Z" fill="#BAC2FF"/>
<path d="M235.088 157.65L245.925 164.063C246.263 164.25 246.638 164.25 246.975 164.063L266.063 153.075C266.738 152.663 266.738 151.688 266.063 151.275L254.963 144.863C254.625 144.675 254.25 144.675 253.913 144.863L235.125 155.813C234.413 156.263 234.413 157.238 235.088 157.65Z" fill="white" stroke="#2635B5" stroke-miterlimit="10" stroke-linecap="round" stroke-linejoin="round"/>
<path d="M239.25 160.125L260.25 147.975L257.925 146.625L236.925 158.737L239.25 160.125Z" fill="#343FFC" stroke="#2635B5" stroke-miterlimit="10" stroke-linecap="round" stroke-linejoin="round"/>
<path d="M236.363 164.438L247.838 169.575C248.175 169.725 248.588 169.688 248.888 169.463L266.588 156.375C267.225 155.888 267.113 154.913 266.4 154.613L254.625 149.513C254.288 149.363 253.875 149.4 253.575 149.625L236.138 162.675C235.538 163.125 235.65 164.1 236.363 164.438Z" fill="white" stroke="#2635B5" stroke-miterlimit="10" stroke-linecap="round" stroke-linejoin="round"/>
<path d="M240.787 166.388L260.212 151.95L257.812 150.863L238.275 165.3L240.787 166.388Z" fill="#343FFC" stroke="#2635B5" stroke-miterlimit="10" stroke-linecap="round" stroke-linejoin="round"/>
<path d="M242.625 164.888L246.787 161.663" stroke="#2635B5" stroke-miterlimit="10" stroke-linecap="round" stroke-linejoin="round"/>
<path d="M244.388 166.013L246.263 164.55" stroke="#2635B5" stroke-miterlimit="10" stroke-linecap="round" stroke-linejoin="round"/>
<path d="M245.4 166.388L250.05 162.788" stroke="#2635B5" stroke-miterlimit="10" stroke-linecap="round" stroke-linejoin="round"/>
<path d="M206.662 139.425H221.4L203.925 121.688H189.187L182.4 125.625L199.35 135.188L206.662 139.425Z" fill="#BAC2FF"/>
<path d="M204.075 101.925H204.038" stroke="#2635B5" stroke-miterlimit="10" stroke-linecap="round" stroke-linejoin="round"/>
<path d="M222.112 121.725V137.625C222.112 138.263 221.775 138.825 221.287 139.125L221.175 139.2C220.65 139.5 220.012 139.538 219.412 139.2L212.55 135.225L199.275 127.575C197.663 126.638 196.688 124.95 196.688 123.112V107.175C196.688 106.462 197.1 105.863 197.662 105.6C198.15 105.338 198.787 105.337 199.35 105.675L203.025 107.813L219.487 117.3C221.137 118.162 222.112 119.888 222.112 121.725Z" fill="#343FFC" stroke="#2635B5" stroke-miterlimit="10" stroke-linecap="round" stroke-linejoin="round"/>
<path d="M228.45 118.05V133.988C228.45 134.663 228.075 135.225 227.55 135.525L227.512 135.563L221.325 139.125C221.812 138.825 222.15 138.3 222.15 137.625V121.688C222.15 119.85 221.175 118.125 219.562 117.225L218.962 116.888L216.262 115.35L205.05 108.863L203.1 107.738L199.425 105.6C198.862 105.263 198.262 105.3 197.737 105.525L203.887 101.963L204.037 101.888C204.562 101.625 205.162 101.588 205.725 101.925L225.862 113.55C227.475 114.525 228.45 116.213 228.45 118.05Z" fill="white" stroke="#2635B5" stroke-miterlimit="10" stroke-linecap="round" stroke-linejoin="round"/>
<path d="M228.45 126.075L224.175 128.55C223.612 128.888 223.275 129.488 223.275 130.125V138" fill="white"/>
<path d="M228.45 126.075L224.175 128.55C223.612 128.888 223.275 129.488 223.275 130.125V138" stroke="#2635B5" stroke-miterlimit="10" stroke-linecap="round" stroke-linejoin="round"/>
<path d="M228.45 129.75L223.237 132.75" stroke="#2635B5" stroke-miterlimit="10" stroke-linecap="round" stroke-linejoin="round"/>
<path d="M227.775 115.463L221.4 119.138" stroke="#2635B5" stroke-miterlimit="10" stroke-linecap="round" stroke-linejoin="round"/>
<path d="M222.675 111.75L216.375 115.388V127.725L203.025 120.15L203.063 107.813L209.325 104.138L207.413 103.013L201.113 106.688V121.088L201.038 121.163L201.113 121.2V128.663L202.95 129.75L202.988 122.288L216.375 129.975V137.4L218.213 138.45L218.325 116.513L224.588 112.838L222.675 111.75Z" fill="#2635B5"/>
<path d="M218.587 109.35V112.388L217.725 112.875V109.838C217.725 109.538 217.687 109.2 217.612 108.9C217.5 108.525 217.35 108.188 217.125 107.85C217.05 107.738 216.937 107.588 216.862 107.475C216.825 107.4 216.75 107.363 216.712 107.325C216.562 107.175 216.375 107.025 216.187 106.875C216.112 106.838 216.075 106.8 216 106.763L210.45 103.575L209.962 103.275C209.737 103.125 209.475 103.088 209.212 103.125C209.062 103.125 208.95 103.163 208.837 103.238L209.475 102.863L209.7 102.75C210.037 102.6 210.45 102.6 210.825 102.788L216.862 106.275C217.912 106.913 218.587 108.075 218.587 109.35Z" fill="white" stroke="#2635B5" stroke-miterlimit="10" stroke-linecap="round" stroke-linejoin="round"/>
<path d="M209.813 104.212V107.287L208.95 107.775V104.212C208.95 103.987 209.175 103.838 209.363 103.95L209.813 104.212Z" fill="white" stroke="#2635B5" stroke-miterlimit="10" stroke-linecap="round" stroke-linejoin="round"/>
<path d="M217.725 112.838V109.8C217.725 108.525 217.05 107.363 215.962 106.725L209.925 103.238C209.1 102.75 208.087 103.35 208.087 104.288V107.25" stroke="#2635B5" stroke-miterlimit="10" stroke-linecap="round" stroke-linejoin="round"/>
<path d="M217.725 109.838V112.875L216.862 112.388V109.725C216.862 108.863 216.412 108.075 215.662 107.625L209.4 104.025C209.213 103.913 208.987 104.063 208.987 104.288V107.85L208.125 107.363V104.4C208.125 103.463 209.138 102.863 209.963 103.35L216 106.838C217.05 107.4 217.725 108.563 217.725 109.838Z" fill="#343FFC" stroke="#2635B5" stroke-miterlimit="10" stroke-linecap="round" stroke-linejoin="round"/>
<path d="M69.4501 64.9125C68.5126 64.9125 67.6501 65.175 66.9376 65.6625C66.1126 65.2125 65.1376 65.2125 64.3501 65.6625L63.0376 66.4125C62.6251 66.6375 62.2876 66.975 62.0626 67.3875C61.8376 67.8 61.7251 68.25 61.7251 68.7C61.7251 69.6375 62.2126 70.5 63.0376 70.9875L66.9001 73.2C67.6126 73.6875 68.5126 73.9875 69.4501 73.9875C71.9626 73.9875 74.0251 71.9625 74.0251 69.4125C74.0251 66.9375 72.0001 64.9125 69.4501 64.9125Z" fill="white"/>
<path d="M73.7251 71.1C73.0876 72.825 71.4001 74.025 69.4501 74.025C68.5126 74.025 67.6126 73.725 66.9001 73.2375L63.0376 70.9875C62.2126 70.5375 61.7251 69.6375 61.7251 68.7C61.7251 68.2125 61.8376 67.7625 62.0626 67.3875C62.1751 67.1625 62.3626 66.975 62.5501 66.7875C62.5126 67.0125 62.4751 67.2 62.4751 67.425C62.4751 68.3625 62.9626 69.225 63.7876 69.7125L67.6501 71.9625C68.3626 72.45 69.2626 72.75 70.2001 72.75C71.6251 72.75 72.9001 72.1125 73.7251 71.1Z" fill="#BAC2FF"/>
<path d="M66.9376 65.6625C66.1126 65.2125 65.1376 65.2125 64.3501 65.6625L63.0376 66.4125C62.6251 66.6375 62.2876 66.975 62.0626 67.3875C61.8376 67.8 61.7251 68.25 61.7251 68.7C61.7251 69.6375 62.2126 70.5 63.0376 70.9875L66.9001 73.2L66.9751 73.2375L66.9001 73.2C67.6501 73.6875 68.5126 73.9875 69.4876 73.9875C72.0001 73.9875 74.0626 71.9625 74.0626 69.4125C74.0626 66.8625 72.0376 64.8375 69.4876 64.8375C66.9376 64.8375 64.9126 66.8625 64.9126 69.4125" stroke="#2635B5" stroke-miterlimit="10" stroke-linecap="round" stroke-linejoin="round"/>
<path d="M181.238 81.8624C180.3 81.8624 179.438 82.1249 178.725 82.6124C177.9 82.1624 176.925 82.1624 176.138 82.6124L174.825 83.3624C174.413 83.5874 174.075 83.9249 173.85 84.3374C173.625 84.7499 173.513 85.1999 173.513 85.6499C173.513 86.5874 174 87.4499 174.825 87.9374L178.688 90.1499C179.4 90.6374 180.3 90.9374 181.238 90.9374C183.75 90.9374 185.813 88.9124 185.813 86.3624C185.813 83.8874 183.75 81.8624 181.238 81.8624Z" fill="white"/>
<path d="M185.513 88.0499C184.875 89.7749 183.188 90.9749 181.238 90.9749C180.3 90.9749 179.4 90.6749 178.688 90.1874L174.825 87.9374C174 87.4874 173.513 86.5874 173.513 85.6499C173.513 85.1624 173.625 84.7124 173.85 84.3374C173.963 84.1124 174.15 83.9249 174.338 83.7374C174.3 83.9624 174.263 84.1499 174.263 84.3749C174.263 85.3124 174.75 86.1749 175.575 86.6624L179.438 88.9124C180.15 89.3999 181.05 89.6999 181.988 89.6999C183.413 89.6999 184.65 89.0624 185.513 88.0499Z" fill="#BAC2FF"/>
<path d="M178.725 82.6125C177.9 82.1625 176.925 82.1625 176.138 82.6125L174.825 83.3625C174.413 83.5875 174.075 83.925 173.85 84.3375C173.625 84.75 173.513 85.2 173.513 85.65C173.513 86.5875 174 87.45 174.825 87.9375L178.688 90.15L178.763 90.1875L178.688 90.15C179.438 90.6375 180.3 90.9375 181.275 90.9375C183.788 90.9375 185.85 88.9125 185.85 86.3625C185.85 83.8125 183.825 81.7875 181.275 81.7875C178.763 81.7875 176.7 83.8125 176.7 86.3625" stroke="#2635B5" stroke-miterlimit="10" stroke-linecap="round" stroke-linejoin="round"/>
<path d="M217.5 156.263L163.65 188.4L148.013 191.175L114.788 171.825L125.438 165.825L203.175 154.05L217.5 156.263Z" fill="#BAC2FF"/>
<path d="M125.888 166.575L139.463 150.638L153.038 150.9L166.613 134.963L180.188 135.225L217.5 156.263V157.013L204.375 156.75L190.8 172.725L177.225 172.425L163.65 188.4L125.888 166.575Z" fill="#343FFC" stroke="#2635B5" stroke-miterlimit="10" stroke-linecap="round" stroke-linejoin="round"/>
<path d="M125.438 165.825L139.013 149.888L152.587 150.15L166.163 134.213L179.737 134.475L217.5 156.263L203.925 156L190.35 171.938L176.775 171.675L163.2 187.613L125.438 165.825Z" fill="white" stroke="#2635B5" stroke-miterlimit="10" stroke-linecap="round" stroke-linejoin="round"/>
<path d="M173.85 169.988L176.775 171.675" stroke="#2635B5" stroke-miterlimit="10" stroke-linecap="round" stroke-linejoin="round"/>
<path d="M187.462 170.25L190.35 171.938" stroke="#2635B5" stroke-miterlimit="10" stroke-linecap="round" stroke-linejoin="round"/>
<path d="M152.587 150.15L155.512 151.838" stroke="#2635B5" stroke-miterlimit="10" stroke-linecap="round" stroke-linejoin="round"/>
<path d="M201.038 154.312L203.925 156" stroke="#2635B5" stroke-miterlimit="10" stroke-linecap="round" stroke-linejoin="round"/>
<path d="M169.087 135.863L201.037 154.313L211.237 154.538L179.287 136.088L169.087 135.863Z" fill="white" stroke="#2635B5" stroke-miterlimit="10" stroke-linecap="round" stroke-linejoin="round"/>
<path d="M141.938 151.537L173.85 169.987L187.35 170.362L187.462 170.25L155.513 151.837L141.938 151.537Z" fill="white" stroke="#2635B5" stroke-miterlimit="10" stroke-linecap="round" stroke-linejoin="round"/>
<path d="M155.513 151.838L187.463 170.25L201.038 154.313L169.088 135.863H169.013L155.513 151.838Z" stroke="#2635B5" stroke-miterlimit="10" stroke-linecap="round" stroke-linejoin="round"/>
<path d="M130.725 164.737L162.638 183.15L166.463 178.65L173.85 169.987L141.938 151.537L134.55 160.2L130.725 164.737Z" stroke="#2635B5" stroke-miterlimit="10" stroke-linecap="round" stroke-linejoin="round"/>
<path d="M158.363 180.675L160.425 175.462L172.088 168.975L180 165.975V157.762L191.925 149.062L201.15 148.687L199.125 147.525L189.825 147.862L178.463 156.112L173.175 154.537L178.013 141.037L189.713 142.087L187.538 140.85L176.1 139.912L169.125 159.675L156.638 160.05L150.788 165.037L143.625 163.162L145.613 153.675L150.675 151.725L147.075 151.65L143.888 152.662L141.3 164.512L151.275 167.287L158.625 161.212L170.963 160.762L172.538 156.675L177.938 158.175V164.775L170.175 167.85L158.625 174.3L156.638 179.7L158.363 180.675Z" stroke="#2635B5" stroke-miterlimit="10" stroke-linecap="round" stroke-linejoin="round"/>
<path d="M147.563 174.45L148.575 171L134.813 166.013L133.575 166.388" stroke="#2635B5" stroke-miterlimit="10" stroke-linecap="round" stroke-linejoin="round"/>
<path d="M165.3 140.287L162.3 149.175L158.175 148.687" stroke="#2635B5" stroke-miterlimit="10" stroke-linecap="round" stroke-linejoin="round"/>
<path d="M138.337 196.688C138.262 196.613 131.85 187.913 124.612 191.438C124.425 191.063 124.162 190.763 123.825 190.538C123.412 190.313 122.962 190.238 122.587 190.238C122.062 182.175 111.337 180.9 111.225 180.9C110.887 180.863 110.587 181.088 110.512 181.425C110.437 181.763 108.937 189.713 112.612 192.188C112.837 192.338 113.062 192.488 113.287 192.638C115.05 193.688 116.812 194.025 118.425 193.725C120.187 193.388 121.387 192.338 121.987 191.663C122.25 191.588 122.775 191.475 123.112 191.663C123.375 191.813 123.525 192.15 123.6 192.675C123.6 192.675 123.6 192.675 123.6 192.713C123.337 193.575 123.037 195.075 123.6 196.725C124.125 198.3 125.287 199.65 127.087 200.663C127.312 200.813 127.537 200.925 127.8 201.038C131.775 203.025 137.962 197.775 138.187 197.55C138.487 197.325 138.525 196.95 138.337 196.688Z" fill="#BAC2FF"/>
<path d="M140.062 198.15C139.949 198.15 139.837 198.112 139.724 198.075L118.762 187.725L111.337 187.95C110.924 187.95 110.587 187.65 110.549 187.237C110.549 186.825 110.849 186.487 111.262 186.45L118.874 186.225C118.987 186.225 119.137 186.262 119.212 186.3L140.362 196.725C140.737 196.912 140.887 197.362 140.699 197.737C140.587 198 140.324 198.15 140.062 198.15Z" fill="#2635B5"/>
<path d="M135.749 202.2C135.487 202.2 135.224 202.05 135.074 201.788L131.587 195.188L112.237 182.063C111.899 181.838 111.787 181.35 112.049 181.013C112.274 180.675 112.762 180.563 113.099 180.825L132.599 194.063C132.712 194.138 132.787 194.213 132.824 194.325L136.387 201.075C136.574 201.45 136.424 201.9 136.087 202.088C136.012 202.2 135.862 202.2 135.749 202.2Z" fill="#2635B5"/>
<path d="M113.475 180.825C113.475 180.825 124.162 182.025 124.275 190.013C124.275 190.013 121.05 194.813 115.312 190.95C111.975 188.663 113.475 180.825 113.475 180.825Z" fill="#343FFC" stroke="#2635B5" stroke-miterlimit="10" stroke-linecap="round" stroke-linejoin="round"/>
<path d="M140.174 196.35C140.174 196.35 133.874 187.65 126.862 191.475C126.862 191.475 124.274 196.65 130.462 199.725C134.099 201.563 140.174 196.35 140.174 196.35Z" fill="#343FFC" stroke="#2635B5" stroke-miterlimit="10" stroke-linecap="round" stroke-linejoin="round"/>
<path d="M140.7 196.013C140.625 195.938 134.212 187.238 126.975 190.763C126.787 190.388 126.525 190.088 126.187 189.863C125.775 189.638 125.325 189.563 124.95 189.563C124.425 181.5 113.7 180.225 113.587 180.225C113.25 180.188 112.95 180.413 112.875 180.75C112.8 181.088 111.3 189.038 114.975 191.513C115.2 191.663 115.425 191.813 115.65 191.963C117.412 193.013 119.175 193.35 120.787 193.05C122.55 192.713 123.75 191.663 124.35 190.988C124.612 190.913 125.137 190.8 125.475 190.988C125.737 191.138 125.887 191.475 125.962 192C125.962 192 125.962 192 125.962 192.038C125.7 192.9 125.4 194.4 125.962 196.05C126.487 197.625 127.65 198.975 129.45 199.988C129.675 200.138 129.9 200.25 130.162 200.363C134.137 202.35 140.325 197.1 140.55 196.875C140.85 196.65 140.887 196.275 140.7 196.013ZM115.687 190.425C113.437 188.888 113.662 183.975 114 181.575C116.137 181.95 123.375 183.713 123.637 189.825C123.6 189.863 123.562 189.9 123.525 189.938L123.487 189.975C122.7 190.913 120.037 193.35 115.687 190.425ZM130.762 199.2C125.775 196.725 127.012 192.863 127.35 191.963C132.787 189.188 137.887 194.625 139.275 196.275C137.362 197.775 133.2 200.4 130.762 199.2Z" fill="white" stroke="#2635B5" stroke-miterlimit="10" stroke-linecap="round" stroke-linejoin="round"/>
<path d="M114.712 157.275L101.137 149.362L77.5874 162.975L91.1249 170.812L96.1499 171L97.3499 167.25L114.712 157.275Z" fill="#BAC2FF"/>
<path d="M106.763 147.637L82.3501 161.737V162.675L96.4126 170.812L120.863 156.75V155.812L106.763 147.637Z" fill="white" stroke="#2635B5" stroke-miterlimit="10" stroke-linecap="round" stroke-linejoin="round"/>
<path d="M106.763 147.637L82.3501 161.737L96.4126 169.875L120.863 155.812L106.763 147.637Z" fill="#343FFC" stroke="#2635B5" stroke-miterlimit="10" stroke-linecap="round" stroke-linejoin="round"/>
<path d="M111.728 156.924C112.165 154.687 109.997 152.383 106.887 151.777C103.777 151.17 100.902 152.491 100.466 154.727C100.03 156.963 102.198 159.268 105.308 159.874C108.418 160.481 111.292 159.16 111.728 156.924Z" stroke="white" stroke-miterlimit="10" stroke-linecap="round" stroke-linejoin="round"/>
<path d="M109.725 152.962C109.725 152.962 105.488 152.1 103.088 154.65C100.988 156.9 102.75 158.85 102.75 158.85C102.75 158.85 106.838 159.487 108.825 157.162C110.55 155.062 109.725 152.962 109.725 152.962Z" stroke="white" stroke-miterlimit="10" stroke-linecap="round" stroke-linejoin="round"/>
<path d="M103.35 151.95C103.35 151.95 105.75 155.662 111.525 156.975" stroke="white" stroke-miterlimit="10" stroke-linecap="round" stroke-linejoin="round"/>
<path d="M101.1 153.487C101.1 153.487 104.138 157.612 110.325 159" stroke="white" stroke-miterlimit="10" stroke-linecap="round" stroke-linejoin="round"/>
<path d="M93.0376 158.925L97.2001 161.437" stroke="white" stroke-miterlimit="10" stroke-linecap="round" stroke-linejoin="round"/>
<path d="M91.6499 159.75L97.2749 163.125" stroke="white" stroke-miterlimit="10" stroke-linecap="round" stroke-linejoin="round"/>
<path d="M90.4502 160.462L92.9627 161.962" stroke="white" stroke-miterlimit="10" stroke-linecap="round" stroke-linejoin="round"/>
<path d="M89.1001 161.212L95.4001 164.962" stroke="white" stroke-miterlimit="10" stroke-linecap="round" stroke-linejoin="round"/>
<path d="M83.3625 162.3V163.012L80.8125 164.362L82.3125 164.437L82.125 165.45L84.9375 163.875V163.2L83.3625 162.3Z" fill="white" stroke="#2635B5" stroke-miterlimit="10" stroke-linecap="round" stroke-linejoin="round"/>
<path d="M80.5125 186.787C75.8625 184.087 68.325 184.087 63.7125 186.787C59.1 189.487 59.1 193.837 63.75 196.5C68.4 199.2 75.9 199.2 80.55 196.5C85.2 193.8 85.1625 189.45 80.5125 186.787Z" fill="#BAC2FF"/>
<path d="M70.2376 186.787C70.0501 186.9 69.8626 187.012 69.6751 187.125H66.7876V191.625C66.7876 193.387 67.9501 195.15 70.2751 196.5C73.5751 198.412 78.3001 198.937 82.3876 198.15V185.1C78.2626 184.312 73.5376 184.875 70.2376 186.787Z" fill="#343FFC" stroke="#2635B5" stroke-miterlimit="10" stroke-linecap="round" stroke-linejoin="round"/>
<path d="M87.5998 187.125C87.4123 187.012 87.2248 186.9 87.0373 186.787C85.6873 186 84.1123 185.475 82.4248 185.137V198.187C84.1123 197.85 85.7248 197.325 87.0748 196.537C89.3998 195.187 90.5248 193.425 90.5248 191.662V187.162H87.5998V187.125Z" fill="white" stroke="#2635B5" stroke-miterlimit="10" stroke-linecap="round" stroke-linejoin="round"/>
<path d="M87.0374 182.287C82.3874 179.587 74.8499 179.587 70.2374 182.287C65.6249 184.987 65.6249 189.337 70.2749 192C74.9249 194.7 82.4249 194.7 87.0749 192C91.6874 189.337 91.6874 184.987 87.0374 182.287Z" fill="white" stroke="#2635B5" stroke-miterlimit="10" stroke-linecap="round" stroke-linejoin="round"/>
<path d="M86.5499 181.35C82.1624 178.837 75.1124 178.837 70.7624 181.35C66.4124 183.862 66.4499 187.987 70.7999 190.5C75.1874 193.012 82.2374 193.012 86.5874 190.5C90.9374 187.987 90.8999 183.9 86.5499 181.35Z" fill="white" stroke="#2635B5" stroke-miterlimit="10" stroke-linecap="round" stroke-linejoin="round"/>
<path d="M91.0499 193.8C91.0499 194.55 90.5249 195.487 89.8499 195.862C89.5124 196.05 89.2499 196.087 89.0249 195.937C88.7999 195.825 88.6499 195.562 88.6499 195.15C88.6499 194.4 89.1749 193.462 89.8499 193.087C90.1499 192.9 90.4124 192.862 90.6374 192.975L90.7124 193.012C90.9374 193.162 91.0499 193.425 91.0499 193.8Z" fill="white" stroke="#2635B5" stroke-miterlimit="10" stroke-linecap="round" stroke-linejoin="round"/>
<path d="M90.6374 193.012C90.4124 192.937 90.1499 192.937 89.8499 193.125C89.1749 193.5 88.6499 194.437 88.6499 195.187C88.6499 195.562 88.7999 195.862 89.0249 195.975L87.5249 195.112L87.4874 195.075C87.2624 194.962 87.1499 194.7 87.1499 194.287C87.1499 193.537 87.6749 192.6 88.3499 192.225C88.6874 192.037 88.9874 192 89.2124 192.15L89.2874 192.187L90.6374 193.012Z" fill="white" stroke="#2635B5" stroke-miterlimit="10" stroke-linecap="round" stroke-linejoin="round"/>
<path d="M86.4377 185.925L81.3752 185.287L80.7002 185.887C80.7002 185.925 80.7002 185.962 80.7002 186L81.3752 186.6L86.4377 185.925Z" fill="white" stroke="#2635B5" stroke-miterlimit="10" stroke-linecap="round" stroke-linejoin="round"/>
<path d="M75.9375 185.287L70.875 185.925L75.9375 186.562L76.6125 185.962C76.6125 185.925 76.6125 185.887 76.6125 185.85L75.9375 185.287Z" fill="white" stroke="#2635B5" stroke-miterlimit="10" stroke-linecap="round" stroke-linejoin="round"/>
<path d="M79.8002 187.5L78.7502 187.125C78.6752 187.125 78.6377 187.125 78.5627 187.125L77.5127 187.5L78.6752 190.425L79.8002 187.5Z" fill="white" stroke="#2635B5" stroke-miterlimit="10" stroke-linecap="round" stroke-linejoin="round"/>
<path d="M78.6377 181.425L77.5127 184.35L78.5627 184.725C78.6377 184.725 78.6752 184.725 78.7502 184.725L79.8002 184.35L78.6377 181.425Z" fill="white" stroke="#2635B5" stroke-miterlimit="10" stroke-linecap="round" stroke-linejoin="round"/>
<path d="M84.15 182.737L79.8 184.35L78.75 184.725C79.2375 184.725 79.7625 184.837 80.1375 185.062C80.5125 185.287 80.7375 185.587 80.7375 185.85L81.4125 185.25L84.15 182.737Z" fill="#343FFC" stroke="#2635B5" stroke-miterlimit="10" stroke-linecap="round" stroke-linejoin="round"/>
<path d="M78.6001 187.125C78.1126 187.125 77.5876 187.012 77.2126 186.787C76.8376 186.562 76.6126 186.262 76.6126 186L75.9376 186.6L73.1626 189.15L77.5501 187.537L78.6001 187.125Z" fill="#343FFC" stroke="#2635B5" stroke-miterlimit="10" stroke-linecap="round" stroke-linejoin="round"/>
<path d="M80.7375 186C80.7 186.3 80.5125 186.562 80.1375 186.787C79.7625 187.012 79.275 187.125 78.75 187.125L79.8 187.5L84.1875 189.112L81.375 186.562L80.7375 186Z" fill="#343FFC" stroke="#2635B5" stroke-miterlimit="10" stroke-linecap="round" stroke-linejoin="round"/>
<path d="M78.5625 184.725L77.5125 184.35L73.125 182.737L75.9 185.287L76.575 185.887C76.6125 185.587 76.8 185.325 77.175 185.1C77.5875 184.875 78.075 184.762 78.5625 184.725Z" fill="#343FFC" stroke="#2635B5" stroke-miterlimit="10" stroke-linecap="round" stroke-linejoin="round"/>
<path d="M80.1001 185.1C79.7251 184.875 79.2376 184.762 78.7126 184.762C78.6376 184.762 78.6001 184.762 78.5251 184.762C78.0376 184.762 77.5126 184.875 77.1376 185.1C76.7626 185.325 76.5751 185.625 76.5376 185.887C76.5376 185.925 76.5376 185.962 76.5376 186C76.5751 186.3 76.7626 186.562 77.1376 186.787C77.5126 187.012 78.0001 187.125 78.5251 187.125C78.6001 187.125 78.6376 187.125 78.7126 187.125C79.2001 187.125 79.6876 187.012 80.1001 186.787C80.4751 186.562 80.6626 186.262 80.7001 186C80.7001 185.962 80.7001 185.925 80.7001 185.887C80.7001 185.587 80.5126 185.325 80.1001 185.1Z" fill="white" stroke="#2635B5" stroke-miterlimit="10" stroke-linecap="round" stroke-linejoin="round"/>
<path d="M191.925 61.1249C191.925 61.4249 191.85 61.6125 191.7 61.725L191.625 61.7624L191.588 61.7999C191.4 61.9124 191.138 61.875 190.875 61.725C190.313 61.3875 189.825 60.5999 189.825 59.9249C189.825 59.5874 189.975 59.3249 190.163 59.2499C190.35 59.1749 190.575 59.1749 190.838 59.3249C191.438 59.6624 191.925 60.4874 191.925 61.1249Z" stroke="#2635B5" stroke-miterlimit="10" stroke-linecap="round" stroke-linejoin="round"/>
<path d="M191.7 61.7625C191.663 61.8 191.663 61.8 191.625 61.8" stroke="#2635B5" stroke-miterlimit="10" stroke-linecap="round" stroke-linejoin="round"/>
<path d="M195.638 58.6875C195.638 58.875 195.6 59.0625 195.488 59.1375L195.338 59.25L191.7 61.7625C191.85 61.65 191.925 61.425 191.925 61.1625C191.925 60.525 191.475 59.7 190.875 59.3625C190.613 59.2125 190.35 59.175 190.2 59.2875L194.213 57.225C194.363 57.15 194.588 57.15 194.813 57.2625C195.263 57.525 195.638 58.1625 195.638 58.6875Z" fill="white" stroke="#2635B5" stroke-miterlimit="10" stroke-linecap="round" stroke-linejoin="round"/>
<path d="M195.488 59.1375C195.45 59.175 195.413 59.2125 195.338 59.25" stroke="#2635B5" stroke-miterlimit="10" stroke-linecap="round" stroke-linejoin="round"/>
<path d="M190.2 59.25H190.163" stroke="#2635B5" stroke-miterlimit="10" stroke-linecap="round" stroke-linejoin="round"/>
<path d="M191.925 61.125C191.925 61.2375 191.925 61.3125 191.887 61.425C191.775 61.425 191.625 61.35 191.512 61.275C190.95 60.9375 190.462 60.15 190.462 59.475C190.462 59.3625 190.462 59.2875 190.5 59.175C190.612 59.175 190.762 59.25 190.875 59.325C191.437 59.6625 191.925 60.4875 191.925 61.125Z" fill="#343FFC" stroke="#2635B5" stroke-miterlimit="10" stroke-linecap="round" stroke-linejoin="round"/>
<path d="M176.738 52.4625C176.738 52.7625 176.663 52.95 176.513 53.0625L176.438 53.1L176.4 53.1375C176.213 53.25 175.95 53.2125 175.688 53.0625C175.125 52.725 174.638 51.9375 174.638 51.2625C174.638 50.925 174.788 50.6625 174.975 50.5875C175.163 50.5125 175.388 50.5125 175.65 50.6625C176.25 51 176.738 51.7875 176.738 52.4625Z" stroke="#2635B5" stroke-miterlimit="10" stroke-linecap="round" stroke-linejoin="round"/>
<path d="M176.475 53.0625C176.438 53.1 176.438 53.1 176.4 53.1" stroke="#2635B5" stroke-miterlimit="10" stroke-linecap="round" stroke-linejoin="round"/>
<path d="M180.45 49.9876C180.45 50.1751 180.413 50.3626 180.3 50.4376L180.15 50.5501L176.513 53.0626C176.663 52.95 176.738 52.725 176.738 52.4625C176.738 51.825 176.288 51.0001 175.688 50.6626C175.425 50.5126 175.163 50.475 175.013 50.5875L179.025 48.525C179.175 48.45 179.4 48.4501 179.625 48.5626C180.075 48.8251 180.45 49.4626 180.45 49.9876Z" fill="white" stroke="#2635B5" stroke-miterlimit="10" stroke-linecap="round" stroke-linejoin="round"/>
<path d="M180.3 50.4751C180.263 50.5126 180.225 50.5501 180.15 50.5876" stroke="#2635B5" stroke-miterlimit="10" stroke-linecap="round" stroke-linejoin="round"/>
<path d="M176.737 52.4625C176.737 52.5749 176.737 52.65 176.7 52.7625C176.587 52.7625 176.437 52.6875 176.325 52.6125C175.762 52.275 175.275 51.4875 175.275 50.8125C175.275 50.7 175.275 50.625 175.312 50.5125C175.425 50.5125 175.575 50.5875 175.687 50.6625C176.25 51 176.737 51.7875 176.737 52.4625Z" fill="#343FFC" stroke="#2635B5" stroke-miterlimit="10" stroke-linecap="round" stroke-linejoin="round"/>
<path d="M174.187 48.3C174.187 48.6 174.112 48.7875 173.962 48.9L173.887 48.9375L173.85 48.975C173.662 49.0875 173.4 49.05 173.137 48.9C172.575 48.5625 172.087 47.775 172.087 47.1C172.087 46.7625 172.237 46.5 172.425 46.425C172.612 46.35 172.837 46.35 173.1 46.5C173.737 46.8375 174.187 47.625 174.187 48.3Z" stroke="#2635B5" stroke-miterlimit="10" stroke-linecap="round" stroke-linejoin="round"/>
<path d="M173.963 48.9C173.925 48.9 173.925 48.9375 173.888 48.9375" stroke="#2635B5" stroke-miterlimit="10" stroke-linecap="round" stroke-linejoin="round"/>
<path d="M177.9 45.8249C177.9 46.0124 177.862 46.2 177.75 46.275L177.6 46.3874L173.962 48.8999C174.112 48.7874 174.187 48.5625 174.187 48.3C174.187 47.6625 173.737 46.8375 173.137 46.5C172.875 46.35 172.612 46.3125 172.462 46.425L176.475 44.3625C176.625 44.2875 176.85 44.2875 177.075 44.4C177.525 44.6625 177.9 45.2999 177.9 45.8249Z" fill="white" stroke="#2635B5" stroke-miterlimit="10" stroke-linecap="round" stroke-linejoin="round"/>
<path d="M177.75 46.2749C177.713 46.3124 177.675 46.3499 177.6 46.3874" stroke="#2635B5" stroke-miterlimit="10" stroke-linecap="round" stroke-linejoin="round"/>
<path d="M172.462 46.4249H172.425" stroke="#2635B5" stroke-miterlimit="10" stroke-linecap="round" stroke-linejoin="round"/>
<path d="M174.188 48.3C174.188 48.4125 174.188 48.4875 174.15 48.6C174.038 48.6 173.888 48.525 173.775 48.45C173.213 48.1125 172.725 47.325 172.725 46.65C172.725 46.5375 172.725 46.4625 172.763 46.35C172.875 46.35 173.025 46.425 173.138 46.5C173.738 46.8375 174.188 47.625 174.188 48.3Z" fill="#343FFC" stroke="#2635B5" stroke-miterlimit="10" stroke-linecap="round" stroke-linejoin="round"/>
<path d="M210.038 30.45L208.725 31.425L209.738 34.0875L211.95 32.625L210.038 30.45Z" stroke="#2635B5" stroke-miterlimit="10" stroke-linecap="round" stroke-linejoin="round"/>
<path d="M173.775 39.0375L172.013 40.4625C171.563 40.8375 171.45 41.2875 171.713 41.7L179.288 54.15L186.3 50.0625L173.775 39.0375Z" fill="white" stroke="#2635B5" stroke-miterlimit="10" stroke-linecap="round" stroke-linejoin="round"/>
<path d="M214.2 24.7501V33.3751C214.2 33.9376 214.087 34.4626 213.825 34.9501L213.412 35.7751C209.175 44.1751 202.95 49.9126 194.812 54.6751C194.775 54.7126 194.7 54.7501 194.662 54.7876L178.837 63.9751C178.387 64.2376 177.9 64.5001 177.45 64.7251C176.062 65.4376 174.562 65.9251 173.062 66.3001C171.525 66.6376 169.987 66.8251 168.412 66.8251C166.275 66.8251 164.962 64.5001 166.05 62.6626L167.175 60.8251C167.4 60.4501 167.662 60.0001 167.925 59.5126C168.412 58.6876 168.9 57.7501 169.35 57.1126C170.7 55.1626 172.5 54.7876 174.412 53.6626L174.712 53.5126L194.437 41.9626C199.162 39.1876 204.075 36.7126 209.1 34.5751C209.775 34.3126 210.225 33.6751 210.3 33.0001L211.012 27.3376C211.087 26.7376 211.387 26.2126 211.875 25.8376L213.712 24.4876C213.9 24.3376 214.2 24.4876 214.2 24.7501Z" fill="white" stroke="#2635B5" stroke-miterlimit="10" stroke-linecap="round" stroke-linejoin="round"/>
<path d="M209.438 42.15C205.575 47.2875 200.7 51.2625 194.775 54.7125C194.738 54.75 194.663 54.7875 194.625 54.825L178.8 64.0125C178.35 64.275 177.863 64.5375 177.413 64.7625C176.025 65.475 174.525 65.9625 173.025 66.3375C171.488 66.675 169.95 66.8625 168.375 66.8625C166.388 66.8625 165.113 64.875 165.788 63.1125C166.125 63.1125 166.875 63.1875 167.513 64.05C168.038 64.7625 168.9 65.1375 169.8 65.025C170.925 64.8375 172.388 64.5 173.85 63.7875C176.625 62.4 200.475 48.225 203.475 46.35C207.938 43.4625 209.288 42.3 209.438 42.15Z" fill="#343FFC" stroke="#2635B5" stroke-miterlimit="10" stroke-linecap="round" stroke-linejoin="round"/>
<path d="M217.05 34.5L213.3 33.375L210.975 34.725L215.363 35.25L217.05 34.5Z" fill="white" stroke="#2635B5" stroke-miterlimit="10" stroke-linecap="round" stroke-linejoin="round"/>
<path d="M167.85 59.5125C167.813 59.7 169.088 61.0125 171.638 60.2625C171.863 60.1875 172.013 60.225 172.163 60.3375C172.688 60.675 172.575 61.5 171.975 61.6875C168.9 62.7 167.062 60.825 167.062 60.825" fill="#343FFC"/>
<path d="M167.85 59.5125C167.813 59.7 169.088 61.0125 171.638 60.2625C171.863 60.1875 172.013 60.225 172.163 60.3375C172.688 60.675 172.575 61.5 171.975 61.6875C168.9 62.7 167.062 60.825 167.062 60.825" stroke="#2635B5" stroke-miterlimit="10" stroke-linecap="round" stroke-linejoin="round"/>
<path d="M165.788 63.075C166.125 63.075 166.875 63.15 167.513 64.0125C168.038 64.725 168.9 65.1 169.8 64.9875C170.888 64.8375 172.388 64.4625 173.85 63.75C176.625 62.3625 200.475 48.1875 203.475 46.3125C208.238 43.275 209.475 42.15 209.475 42.15" stroke="#2635B5" stroke-miterlimit="10" stroke-linecap="round" stroke-linejoin="round"/>
<path d="M197.7 62.4C197.7 62.7 197.625 62.8875 197.475 63L197.4 63.0375L197.363 63.075C197.175 63.1875 196.913 63.15 196.65 63C196.088 62.6625 195.6 61.875 195.6 61.2C195.6 60.8625 195.75 60.6 195.938 60.525C196.125 60.45 196.35 60.45 196.613 60.6C197.25 60.9375 197.7 61.7625 197.7 62.4Z" stroke="#2635B5" stroke-miterlimit="10" stroke-linecap="round" stroke-linejoin="round"/>
<path d="M197.475 63C197.438 63 197.438 63.0375 197.4 63.0375" stroke="#2635B5" stroke-miterlimit="10" stroke-linecap="round" stroke-linejoin="round"/>
<path d="M201.413 59.9625C201.413 60.15 201.375 60.3375 201.263 60.4125L201.113 60.525L197.475 63.0375C197.625 62.925 197.7 62.7 197.7 62.4375C197.7 61.8 197.25 60.975 196.65 60.6375C196.388 60.4875 196.125 60.45 195.975 60.5625L199.988 58.5C200.138 58.425 200.363 58.425 200.588 58.5375C201.038 58.7625 201.413 59.4375 201.413 59.9625Z" fill="white" stroke="#2635B5" stroke-miterlimit="10" stroke-linecap="round" stroke-linejoin="round"/>
<path d="M201.263 60.4125C201.225 60.45 201.188 60.4875 201.113 60.525" stroke="#2635B5" stroke-miterlimit="10" stroke-linecap="round" stroke-linejoin="round"/>
<path d="M195.975 60.525H195.938" stroke="#2635B5" stroke-miterlimit="10" stroke-linecap="round" stroke-linejoin="round"/>
<path d="M197.7 62.4001C197.7 62.5126 197.7 62.5876 197.663 62.7001C197.55 62.7001 197.4 62.6251 197.288 62.5501C196.725 62.2126 196.238 61.4251 196.238 60.7501C196.238 60.6376 196.238 60.5626 196.275 60.4501C196.388 60.4501 196.538 60.5251 196.65 60.6001C197.25 60.9376 197.7 61.7626 197.7 62.4001Z" fill="#343FFC" stroke="#2635B5" stroke-miterlimit="10" stroke-linecap="round" stroke-linejoin="round"/>
<path d="M210.9 60.4499L192 53.2875C191.85 53.25 191.7 53.2499 191.55 53.3249L186 56.5874C185.588 56.8499 185.663 57.4875 186.15 57.6L206.288 61.6874C207 61.8374 207.788 61.7624 208.425 61.4999L210.9 60.4499Z" fill="white" stroke="#2635B5" stroke-miterlimit="10" stroke-linecap="round" stroke-linejoin="round"/>
<path d="M179.4 57.825C179.213 57.975 179.1 58.3125 179.063 58.575C179.025 58.8375 179.175 58.95 179.4 58.8375C179.625 58.725 179.85 58.35 179.813 58.0875C179.775 57.75 179.588 57.675 179.4 57.825Z" fill="#343FFC"/>
<path d="M181.913 56.4001C181.725 56.5501 181.613 56.8876 181.575 57.1501C181.538 57.4126 181.688 57.5251 181.913 57.4126C182.138 57.3001 182.363 56.9251 182.325 56.6626C182.288 56.3251 182.1 56.2501 181.913 56.4001Z" fill="#343FFC"/>
<path d="M184.388 54.9376C184.2 55.0876 184.088 55.4251 184.05 55.6876C184.013 55.9501 184.163 56.0626 184.388 55.9501C184.613 55.8376 184.838 55.4626 184.8 55.2001C184.763 54.9001 184.575 54.7876 184.388 54.9376Z" fill="#343FFC"/>
<path d="M186.9 53.5126C186.713 53.6626 186.6 54.0001 186.563 54.2626C186.525 54.5251 186.675 54.6376 186.9 54.5251C187.125 54.4126 187.35 54.0376 187.313 53.7751C187.275 53.4751 187.05 53.3626 186.9 53.5126Z" fill="#343FFC"/>
<path d="M189.375 52.0876C189.187 52.2376 189.075 52.5751 189.037 52.8376C189 53.1001 189.15 53.2126 189.375 53.1001C189.6 52.9876 189.825 52.6126 189.787 52.3501C189.75 52.0126 189.562 51.9376 189.375 52.0876Z" fill="#343FFC"/>
<path d="M191.85 50.6625C191.663 50.8125 191.55 51.15 191.513 51.4125C191.475 51.675 191.625 51.7875 191.85 51.675C192.075 51.5625 192.3 51.1875 192.263 50.925C192.263 50.5875 192.038 50.5125 191.85 50.6625Z" fill="#343FFC"/>
<path d="M194.363 49.2375C194.175 49.3875 194.063 49.725 194.025 49.9875C193.988 50.25 194.138 50.3625 194.363 50.25C194.588 50.1375 194.813 49.7625 194.775 49.5C194.738 49.1625 194.55 49.05 194.363 49.2375Z" fill="#343FFC"/>
<path d="M196.838 47.775C196.65 47.925 196.538 48.2625 196.5 48.525C196.463 48.7875 196.613 48.9 196.838 48.7875C197.063 48.675 197.288 48.3 197.25 48.0375C197.213 47.7375 197.025 47.625 196.838 47.775Z" fill="#343FFC"/>
<path d="M199.35 46.35C199.163 46.5 199.05 46.8375 199.013 47.1C198.975 47.3625 199.125 47.475 199.35 47.3625C199.575 47.25 199.8 46.875 199.763 46.6125C199.725 46.275 199.538 46.2 199.35 46.35Z" fill="#343FFC"/>
<path d="M201.825 44.9251C201.638 45.0751 201.525 45.4126 201.488 45.6751C201.45 45.9376 201.6 46.0501 201.825 45.9376C202.05 45.8251 202.275 45.4501 202.238 45.1876C202.2 44.8501 202.013 44.7751 201.825 44.9251Z" fill="#343FFC"/>
<path d="M204.338 43.5001C204.15 43.6501 204.038 43.9876 204 44.2501C203.963 44.5126 204.113 44.6251 204.338 44.5126C204.563 44.4001 204.788 44.0251 204.75 43.7626C204.713 43.4251 204.488 43.3501 204.338 43.5001Z" fill="#343FFC"/>
<path d="M72.4124 152.512L66.9374 149.4L42.3374 163.387L47.8499 166.612L56.5499 166.5L55.4624 162.225L72.4124 152.512Z" fill="#BAC2FF"/>
<path d="M55.6123 164.887V150.675C55.6123 150.15 55.8748 149.7 56.3248 149.437L77.9998 136.987C78.4873 136.725 79.0123 136.762 79.4248 136.987L73.7998 133.912C73.1998 133.575 72.4498 133.575 71.8498 133.95L51.5998 145.687C50.9998 146.025 50.6623 146.662 50.6248 147.337L50.5498 161.512C50.5498 162.225 50.9248 162.9 51.5623 163.275L56.2123 166.05C55.8373 165.825 55.6123 165.412 55.6123 164.887Z" fill="white" stroke="#2635B5" stroke-miterlimit="10" stroke-linecap="round" stroke-linejoin="round"/>
<path d="M56.3999 166.162L56.4749 166.2C56.4374 166.2 56.3999 166.2 56.3999 166.162Z" fill="white" stroke="#2635B5" stroke-miterlimit="10" stroke-linecap="round" stroke-linejoin="round"/>
<path d="M77.9998 136.987L56.3248 149.437C55.8748 149.7 55.6123 150.15 55.6123 150.675V164.887C55.6123 166.012 56.8123 166.687 57.7873 166.125L79.4248 153.525C79.8748 153.262 80.1373 152.812 80.1373 152.287L80.1748 138.225C80.1373 137.137 78.9373 136.462 77.9998 136.987Z" fill="#343FFC" stroke="#2635B5" stroke-miterlimit="10" stroke-linecap="round" stroke-linejoin="round"/>
<path d="M58.9125 144.938V146.063C58.9125 146.325 58.725 146.625 58.35 146.813C57.6375 147.225 56.4375 147.225 55.6875 146.813C55.3125 146.588 55.125 146.325 55.125 146.063V144.938C55.1625 145.2 58.9125 145.2 58.9125 144.938Z" fill="#343FFC" stroke="#2635B5" stroke-miterlimit="10" stroke-linecap="round" stroke-linejoin="round"/>
<path d="M58.9125 144.937C58.9125 145.2 58.725 145.5 58.35 145.687C57.6375 146.1 56.4375 146.1 55.6875 145.687C55.3125 145.462 55.125 145.2 55.125 144.937C55.125 144.675 55.3125 144.375 55.6875 144.187C56.4 143.775 57.6 143.775 58.35 144.187C58.725 144.375 58.9125 144.637 58.9125 144.937Z" fill="white" stroke="#2635B5" stroke-miterlimit="10" stroke-linecap="round" stroke-linejoin="round"/>
<path d="M57.2248 150.975L60.8623 148.912C61.0123 148.837 61.1998 148.95 61.1998 149.1V150.787C61.1998 150.862 61.1623 150.937 61.0873 150.975L57.4498 153.075C57.2998 153.15 57.1123 153.037 57.1123 152.887V151.2C57.1123 151.087 57.1498 151.012 57.2248 150.975Z" stroke="white" stroke-miterlimit="10" stroke-linecap="round" stroke-linejoin="round"/>
<path d="M75.9377 144.412L73.5377 142.95L73.5002 142.912C72.3002 142.237 70.6502 142.35 68.8127 143.4C65.1377 145.537 62.1377 150.675 62.1752 154.912C62.1752 156.975 62.8877 158.4 64.0502 159.112L64.1252 159.15C64.1627 159.15 64.2002 159.187 64.2002 159.187L67.7252 161.175L68.9626 158.625C72.6001 156.45 75.4877 151.387 75.4877 147.187C75.4877 146.625 75.4126 146.137 75.3376 145.65L75.9377 144.412Z" fill="white" stroke="#2635B5" stroke-miterlimit="10" stroke-linecap="round" stroke-linejoin="round"/>
<path d="M76.5556 155.557C79.1678 151.063 79.1806 146.196 76.5842 144.687C73.9877 143.178 69.7653 145.598 67.1531 150.093C64.5409 154.587 64.5282 159.454 67.1246 160.963C69.721 162.472 73.9435 160.052 76.5556 155.557Z" fill="white" stroke="#2635B5" stroke-miterlimit="10" stroke-linecap="round" stroke-linejoin="round"/>
<path d="M73.9297 154.031C75.0849 152.043 75.0924 149.892 73.9463 149.226C72.8003 148.56 70.9348 149.631 69.7796 151.619C68.6245 153.606 68.617 155.758 69.763 156.424C70.909 157.09 72.7745 156.018 73.9297 154.031Z" fill="white" stroke="#2635B5" stroke-miterlimit="10" stroke-linecap="round" stroke-linejoin="round"/>
<path d="M73.8377 150.675C73.8377 152.55 72.5252 154.837 70.9127 155.775C70.3877 156.075 69.9002 156.188 69.4502 156.188C69.9752 156.75 70.8752 156.825 71.8502 156.225C73.4627 155.288 74.7752 153 74.7752 151.125C74.7752 149.85 74.1752 149.1 73.2752 149.062C73.6502 149.4 73.8377 149.925 73.8377 150.675Z" fill="#343FFC" stroke="#2635B5" stroke-miterlimit="10" stroke-linecap="round" stroke-linejoin="round"/>
<path d="M178.05 142.95C179.437 140.55 181.275 138.675 183.112 137.625C184.275 136.95 185.475 136.613 186.525 136.65C187.125 136.688 187.687 136.838 188.175 137.1C190.725 138.525 190.987 142.988 188.85 147.488L183.187 159.413L180.675 157.088L177.45 154.088C176.475 153.188 175.987 151.688 175.987 149.963C175.95 147.863 176.662 145.35 178.05 142.95ZM179.737 148.313C179.812 149.1 180.15 149.7 180.712 150C181.387 150.375 182.25 150.263 183.15 149.738C184.012 149.25 184.912 148.35 185.55 147.188C186.225 146.025 186.562 144.825 186.562 143.85C186.562 142.838 186.225 142.05 185.55 141.638C184.987 141.338 184.312 141.338 183.6 141.638C183.45 141.713 183.3 141.788 183.15 141.863C182.287 142.388 181.387 143.25 180.75 144.413C180.075 145.575 179.737 146.775 179.775 147.75C179.7 148.013 179.7 148.163 179.737 148.313Z" fill="#343FFC" stroke="#2635B5" stroke-miterlimit="10" stroke-linecap="round" stroke-linejoin="round"/>
<path d="M179.737 148.313C179.812 149.1 180.15 149.7 180.712 150C181.387 150.375 182.25 150.263 183.15 149.738C184.012 149.25 184.912 148.35 185.55 147.188C186.225 146.025 186.562 144.825 186.562 143.85C186.562 142.838 186.225 142.05 185.55 141.638C184.987 141.338 184.312 141.338 183.6 141.638C183.637 141.788 183.637 141.975 183.637 142.125C183.637 143.138 183.3 144.338 182.662 145.463C181.987 146.625 181.125 147.488 180.262 148.013C180.037 148.2 179.887 148.275 179.737 148.313Z" fill="white" stroke="#2635B5" stroke-miterlimit="10" stroke-linecap="round" stroke-linejoin="round"/>
<path d="M173.025 148.275C173.025 150 173.512 151.5 174.487 152.4L180.225 157.725L183.15 159.412L180.637 157.087L177.412 154.087C176.437 153.187 175.95 151.687 175.95 149.962C175.95 147.862 176.662 145.35 178.012 142.95C179.4 140.55 181.237 138.675 183.075 137.625C184.237 136.95 185.437 136.612 186.487 136.65C187.087 136.687 187.65 136.837 188.137 137.1L185.212 135.412C183.825 134.625 181.987 134.887 180.15 135.937C178.312 136.987 176.512 138.862 175.087 141.262C173.737 143.662 173.025 146.175 173.025 148.275Z" fill="white" stroke="#2635B5" stroke-miterlimit="10" stroke-linecap="round" stroke-linejoin="round"/>
</svg>
