<svg width="56" height="56" viewBox="0 0 56 56" fill="none" xmlns="http://www.w3.org/2000/svg">
<path d="M5.26562 10.3581L12.7213 2.90234L14.5367 4.71768L7.08096 12.1734L5.26562 10.3581ZM18.293 12.233L25.7496 4.77911L27.565 6.59445L20.1083 14.0483L18.293 12.233ZM43.8627 48.9588L51.3202 41.5049L53.1356 43.3211L45.678 50.775L43.8627 48.9588ZM42.0006 35.8507L49.4581 28.3969L51.2735 30.2131L43.815 37.667L42.0006 35.8507Z" fill="#ACB8BF"/>
<path d="M50.3637 54.3183L46.0546 15.7195L40.2785 9.94339L1.67962 5.63426C-0.154053 5.45089 0.212683 10.0351 2.32141 11.0436L31.3852 24.6128L44.9544 53.6766C45.9629 55.7853 50.5471 56.152 50.3637 54.3183Z" fill="#03045E"/>
<path d="M54.8575 6.09392C56.8746 2.15152 53.849 -0.87405 49.9066 1.14299C44.864 3.71014 37.4376 9.48622 29.9196 16.9126C18.184 28.6481 10.666 40.292 13.1414 42.8591C15.6169 45.3346 27.3524 37.8165 39.0879 26.081C46.5143 18.6546 52.2904 11.1365 54.8575 6.09392Z" fill="#DAE3EA"/>
<path d="M19.1913 53.8615L17.7244 40.2924L15.7074 38.2753L2.13817 36.8084C1.49638 36.7167 1.58806 38.367 2.32154 38.7337L12.4984 43.5013L17.266 53.6782C17.6327 54.4117 19.283 54.5033 19.1913 53.8615Z" fill="#03045E"/>
<path d="M17.1749 41.0233C13.0491 45.1491 9.2901 47.9913 8.74 47.3495C8.1899 46.7994 11.0321 42.9487 15.0662 38.8229C19.192 34.6971 22.951 31.8549 23.5928 32.4967C24.0512 33.0468 21.209 36.8975 17.1749 41.0233Z" fill="#ACB8BF"/>
<path d="M53.4822 7.56334C53.9407 5.91303 53.7573 4.35441 52.7488 3.2542C51.7402 2.24568 50.0899 1.97063 48.5313 2.52073L45.4141 4.44609C46.9727 3.89599 49.2648 4.72114 50.2733 5.72967C51.3735 6.82987 52.107 9.03028 51.5569 10.5889L53.4822 7.56334Z" fill="#3E4347"/>
<path d="M47.8535 7.55532L53.0371 2.36719L53.6211 2.95027L48.4366 8.13932L47.8535 7.55532Z" fill="#DAE3EA"/>
</svg>
