<svg width="30" height="36" viewBox="0 0 30 36" fill="none" xmlns="http://www.w3.org/2000/svg">
<g clip-path="url(#clip0_2864_9313)">
<path d="M25.0617 18.794C25.1117 24.1107 29.788 25.88 29.8398 25.9025C29.8003 26.0273 29.0926 28.4239 27.3761 30.8995C25.8923 33.0397 24.3522 35.1721 21.9262 35.2162C19.5424 35.2596 18.7759 33.8212 16.0505 33.8212C13.326 33.8212 12.4744 35.1721 10.2178 35.2596C7.87612 35.347 6.09293 32.9452 4.59675 30.8128C1.5395 26.451 -0.796874 18.4873 2.34029 13.1116C3.89876 10.4421 6.68387 8.75157 9.70686 8.70822C12.0064 8.66494 14.1768 10.2349 15.5825 10.2349C16.9874 10.2349 19.6249 8.34688 22.3977 8.62416C23.5585 8.67184 26.8168 9.08688 28.9091 12.1091C28.7405 12.2123 25.0212 14.349 25.0617 18.794V18.794ZM20.5816 5.73841C21.8248 4.25332 22.6616 2.18594 22.4333 0.128906C20.6413 0.199982 18.4743 1.30736 17.1889 2.79163C16.037 4.10602 15.0281 6.20979 15.3003 8.22611C17.2978 8.37862 19.3383 7.22445 20.5816 5.73842" fill="black"/>
</g>
<defs>
<clipPath id="clip0_2864_9313">
<rect width="28.9882" height="35.2" fill="white" transform="translate(0.851562 0.128906)"/>
</clipPath>
</defs>
</svg>
