<svg width="33" height="33" viewBox="0 0 33 33" fill="none" xmlns="http://www.w3.org/2000/svg">
<g clip-path="url(#clip0_2864_9320)">
<path d="M7.60164 20.165L6.48777 24.3233L2.41658 24.4094C1.19989 22.1527 0.509766 19.5708 0.509766 16.827C0.509766 14.1738 1.15502 11.6718 2.29877 9.46875H2.29964L5.92414 10.1332L7.51189 13.736C7.17958 14.7048 6.99845 15.7448 6.99845 16.827C6.99858 18.0015 7.21133 19.1268 7.60164 20.165Z" fill="#FBBB00"/>
<path d="M32.23 13.8398C32.4138 14.8077 32.5096 15.8073 32.5096 16.8288C32.5096 17.9743 32.3891 19.0917 32.1597 20.1695C31.3808 23.8372 29.3456 27.0398 26.5263 29.3062L26.5255 29.3053L21.9602 29.0724L21.3141 25.039C23.1848 23.9418 24.6468 22.2249 25.417 20.1695H16.8613V13.8398H25.5418H32.23Z" fill="#518EF8"/>
<path d="M26.525 29.3064L26.5259 29.3073C23.784 31.5112 20.3008 32.8299 16.5092 32.8299C10.416 32.8299 5.11845 29.4242 2.41602 24.4123L7.60108 20.168C8.95227 23.7741 12.431 26.3412 16.5092 26.3412C18.2621 26.3412 19.9044 25.8673 21.3136 25.04L26.525 29.3064Z" fill="#28B446"/>
<path d="M26.7226 4.51163L21.5393 8.75513C20.0808 7.8435 18.3568 7.31688 16.5098 7.31688C12.3393 7.31688 8.79552 10.0017 7.51202 13.7371L2.2997 9.46988H2.29883C4.9617 4.33581 10.3261 0.828125 16.5098 0.828125C20.392 0.828125 23.9516 2.211 26.7226 4.51163Z" fill="#F14336"/>
</g>
<defs>
<clipPath id="clip0_2864_9320">
<rect width="32" height="32" fill="white" transform="translate(0.509766 0.828125)"/>
</clipPath>
</defs>
</svg>
