<svg width="32" height="19" viewBox="0 0 32 19" fill="none" xmlns="http://www.w3.org/2000/svg">
<path d="M16.7848 7.49231C16.8625 7.36868 16.9521 7.25033 17.0532 7.13772C17.1538 7.02416 17.2741 6.92258 17.4135 6.83297C17.5539 6.74385 17.7135 6.67197 17.8927 6.61831C18.0714 6.56368 18.2731 6.53589 18.4983 6.53589C18.7628 6.53589 19.07 6.58285 19.4203 6.67581L19.2688 8.10947C19.1831 8.09414 19.0973 8.07497 19.012 8.05197C18.9416 8.03664 18.8635 8.02322 18.7782 8.01172C18.6924 7.99926 18.6153 7.99256 18.5463 7.99256C18.2971 7.99256 18.0657 8.02801 17.8524 8.09797C17.6387 8.16841 17.4542 8.26568 17.2985 8.38931C17.1423 8.51341 17.0177 8.66291 16.9248 8.83781C16.8313 9.01318 16.7848 9.20149 16.7848 9.40322V12.468H15.1768V6.68731H16.6334L16.7848 7.49231Z" fill="#03045E"/>
<path d="M23.1602 3.9502H24.7682V12.4679H23.1602V3.9502Z" fill="#03045E"/>
<path d="M31.76 6.68733V12.468H30.3743L30.2094 11.8508C29.9842 12.1537 29.7149 12.3559 29.4006 12.4565C29.0863 12.5571 28.7576 12.6079 28.4154 12.6079C28.0038 12.6079 27.6248 12.5284 27.2789 12.3702C26.9339 12.2107 26.6329 11.9927 26.3761 11.7167C26.1202 11.4407 25.9204 11.1182 25.7762 10.7487C25.6329 10.3798 25.5615 9.98543 25.5615 9.56616C25.5615 9.14737 25.6329 8.75302 25.7762 8.38358C25.9204 8.01462 26.1202 7.69166 26.3761 7.41566C26.6329 7.13966 26.9339 6.9226 27.2789 6.764C27.6248 6.60443 28.0038 6.52441 28.4154 6.52441C28.7882 6.52441 29.1304 6.58335 29.4409 6.70075C29.7514 6.81718 30.0072 7.0031 30.2094 7.2585L30.3743 6.68733H31.76ZM30.1519 9.58916C30.1519 9.28633 30.1107 9.03237 30.0293 8.82633C29.9473 8.62077 29.8386 8.45402 29.7034 8.32608C29.5678 8.19718 29.4088 8.10375 29.2262 8.04625C29.0431 7.98779 28.8472 7.95808 28.6378 7.95808C28.4279 7.95808 28.2319 8.00121 28.0494 8.0865C27.8663 8.17227 27.7048 8.28727 27.5644 8.4315C27.425 8.57477 27.3162 8.74535 27.2386 8.94325C27.1605 9.14162 27.1217 9.3491 27.1217 9.56616C27.1217 9.79137 27.1605 10.0008 27.2386 10.1948C27.3162 10.3894 27.425 10.5585 27.5644 10.7027C27.7048 10.846 27.8663 10.9605 28.0494 11.0458C28.2319 11.1316 28.4279 11.1742 28.6378 11.1742C29.0566 11.1742 29.4121 11.0449 29.7034 10.7852C29.9948 10.5245 30.1443 10.1258 30.1519 9.58916Z" fill="#03045E"/>
<mask id="mask0_803_7264" style="mask-type:luminance" maskUnits="userSpaceOnUse" x="19" y="4" width="4" height="2">
<path d="M19.7539 4.56323H22.3946V5.91257H19.7539V4.56323Z" fill="white"/>
</mask>
<g mask="url(#mask0_803_7264)">
<path d="M19.704 5.18281C19.714 5.16125 19.7327 5.14543 19.7543 5.14064H19.7572C19.7639 5.13968 19.9172 5.12196 20.003 5.13585C20.0193 5.13873 20.0346 5.14735 20.0466 5.16029L20.2862 5.35723C20.3494 5.34429 20.5904 5.29493 20.8731 5.23839L20.4146 4.72521C20.4016 4.71035 20.3968 4.69071 20.4036 4.6725C20.4098 4.65477 20.4256 4.64183 20.4452 4.63896L20.6676 4.60398C20.6887 4.60062 20.7193 4.60637 20.7375 4.61787L21.5392 5.10662C21.7505 5.06589 21.924 5.03331 21.9953 5.02373C22.0476 5.01606 22.106 5.02325 22.1693 5.04337C22.2737 5.07739 22.3902 5.15166 22.3978 5.20821C22.3978 5.2106 22.394 5.43389 21.9608 5.54506L20.3772 5.86227C20.3772 5.86227 20.3379 5.86993 20.3048 5.86562C20.2488 5.85891 20.1908 5.8431 20.1323 5.82393L20.1151 5.81866L20.0911 5.811L20.0859 5.80908L20.0863 5.80716C20.049 5.79471 20.0269 5.76739 20.0236 5.76308L19.7054 5.25181L19.7049 5.24989C19.6939 5.23025 19.6934 5.20533 19.7035 5.18329L19.704 5.18281Z" fill="#FFE53C"/>
</g>
<mask id="mask1_803_7264" style="mask-type:luminance" maskUnits="userSpaceOnUse" x="20" y="6" width="2" height="7">
<path d="M20.3184 6.82251H21.8301V12.4887H20.3184V6.82251Z" fill="white"/>
</mask>
<g mask="url(#mask1_803_7264)">
<path d="M20.3184 6.82251H21.8301V12.4863H20.3184V6.82251Z" fill="#03045E"/>
</g>
<path d="M4.68912 6.13955V13.8259H4.68721C2.09923 13.8259 0 11.7266 0 9.13913V1.44946H0.00191667C2.58942 1.44946 4.68912 3.55157 4.68912 6.13955Z" fill="#03045E"/>
<mask id="mask2_803_7264" style="mask-type:luminance" maskUnits="userSpaceOnUse" x="5" y="0" width="11" height="19">
<path d="M5.35645 0H15.1698V18.4H5.35645V0Z" fill="white"/>
</mask>
<g mask="url(#mask2_803_7264)">
<path d="M14.5465 18.399L7.80895 14.7018C6.20183 13.8196 5.33885 12.133 5.4021 10.4176V8.29342C5.21235 6.47402 6.10455 4.63258 7.80895 3.69725L14.5465 0C15.7914 2.26885 14.9615 5.11702 12.6931 6.36238L7.52241 9.2L12.6931 12.0376C14.9615 13.2825 15.7914 16.1307 14.5465 18.399Z" fill="#FFE53C"/>
</g>
</svg>
