<svg width="79" height="50" viewBox="0 0 79 50" fill="none" xmlns="http://www.w3.org/2000/svg">
<path d="M41.4817 22.7737C41.6514 22.5017 41.8472 22.2413 42.0682 21.9935C42.2882 21.7437 42.551 21.5202 42.8558 21.323C43.1627 21.127 43.5115 20.9688 43.9032 20.8508C44.2938 20.7306 44.7348 20.6694 45.227 20.6694C45.8052 20.6694 46.4765 20.7727 47.2421 20.9773L46.9112 24.1315C46.7237 24.0977 46.5362 24.0556 46.3498 24.005C46.1958 23.9712 46.0251 23.9417 45.8387 23.9164C45.6512 23.889 45.4826 23.8743 45.3318 23.8743C44.7871 23.8743 44.2813 23.9523 43.8152 24.1062C43.3481 24.2612 42.9448 24.4752 42.6045 24.7471C42.263 25.0202 41.9907 25.3491 41.7875 25.7339C41.5833 26.1197 41.4817 26.534 41.4817 26.9779V33.7206H37.9668V21.0026H41.1507L41.4817 22.7737Z" fill="#03045E"/>
<path d="M55.4155 14.9807H58.9304V33.7205H55.4155V14.9807Z" fill="#03045E"/>
<path d="M74.2121 21.0025V33.7206H71.1831L70.8229 32.3627C70.3306 33.029 69.742 33.4739 69.0549 33.6952C68.3679 33.9166 67.6494 34.0284 66.9016 34.0284C66.0019 34.0284 65.1735 33.8534 64.4173 33.5055C63.6632 33.1544 63.0054 32.6748 62.4441 32.0675C61.8848 31.4603 61.448 30.7508 61.1328 29.938C60.8196 29.1263 60.6636 28.2587 60.6636 27.3362C60.6636 26.4148 60.8196 25.5472 61.1328 24.7344C61.448 23.9227 61.8848 23.2121 62.4441 22.6049C63.0054 21.9977 63.6632 21.5201 64.4173 21.1712C65.1735 20.8201 66.0019 20.644 66.9016 20.644C67.7164 20.644 68.4642 20.7737 69.1429 21.032C69.8216 21.2882 70.3809 21.6972 70.8229 22.2591L71.1831 21.0025H74.2121ZM70.6972 27.3868C70.6972 26.7205 70.6071 26.1618 70.4291 25.7085C70.25 25.2562 70.0122 24.8894 69.7169 24.6079C69.4205 24.3243 69.0727 24.1187 68.6737 23.9922C68.2736 23.8636 67.8452 23.7983 67.3876 23.7983C66.9288 23.7983 66.5004 23.8931 66.1014 24.0808C65.7013 24.2695 65.3484 24.5225 65.0415 24.8398C64.7367 25.155 64.499 25.5303 64.3293 25.9657C64.1586 26.4022 64.0737 26.8587 64.0737 27.3362C64.0737 27.8317 64.1586 28.2924 64.3293 28.7193C64.499 29.1474 64.7367 29.5195 65.0415 29.8368C65.3484 30.152 65.7013 30.404 66.1014 30.5916C66.5004 30.7803 66.9288 30.8742 67.3876 30.8742C68.3029 30.8742 69.0801 30.5895 69.7169 30.0181C70.3536 29.4446 70.6804 28.5675 70.6972 27.3868Z" fill="#03045E"/>
<mask id="mask0_267_2184" style="mask-type:luminance" maskUnits="userSpaceOnUse" x="47" y="16" width="7" height="4">
<path d="M47.9702 16.3293H53.7422V19.298H47.9702V16.3293Z" fill="white"/>
</mask>
<g mask="url(#mask0_267_2184)">
<path d="M47.8601 17.6926C47.882 17.6451 47.9229 17.6103 47.97 17.5998H47.9763C47.991 17.5977 48.3261 17.5587 48.5136 17.5893C48.5492 17.5956 48.5827 17.6146 48.6089 17.643L49.1326 18.0763C49.2708 18.0478 49.7976 17.9393 50.4156 17.8149L49.4133 16.6858C49.385 16.6531 49.3745 16.6099 49.3892 16.5698C49.4028 16.5308 49.4374 16.5024 49.4803 16.496L49.9663 16.4191C50.0124 16.4117 50.0794 16.4244 50.1192 16.4497L51.8714 17.525C52.3333 17.4353 52.7124 17.3637 52.8685 17.3426C52.9826 17.3257 53.1104 17.3415 53.2487 17.3858C53.477 17.4606 53.7315 17.624 53.7482 17.7484C53.7482 17.7537 53.7399 18.245 52.7931 18.4896L49.3316 19.1875C49.3316 19.1875 49.2457 19.2043 49.1734 19.1948C49.0509 19.1801 48.9242 19.1453 48.7964 19.1031L48.7587 19.0915L48.7063 19.0747L48.6948 19.0704L48.6958 19.0662C48.6141 19.0388 48.566 18.9787 48.5586 18.9692L47.8632 17.8444L47.8621 17.8402C47.8381 17.7969 47.837 17.7421 47.859 17.6936L47.8601 17.6926Z" fill="#FFE53C"/>
</g>
<mask id="mask1_267_2184" style="mask-type:luminance" maskUnits="userSpaceOnUse" x="49" y="21" width="4" height="13">
<path d="M49.2041 21.3H52.5085V33.7662H49.2041V21.3Z" fill="white"/>
</mask>
<g mask="url(#mask1_267_2184)">
<path d="M49.2041 21.3H52.5085V33.7609H49.2041V21.3Z" fill="#03045E"/>
</g>
<mask id="mask2_267_2184" style="mask-type:luminance" maskUnits="userSpaceOnUse" x="4" y="9" width="12" height="28">
<path d="M4.77148 9.3125H15.1601V36.8402H4.77148V9.3125Z" fill="white"/>
</mask>
<g mask="url(#mask2_267_2184)">
<path d="M15.0428 19.7977V36.7084H15.0386C9.38189 36.7084 4.79346 32.0898 4.79346 26.3971V9.479H4.79765C10.4533 9.479 15.0428 14.1039 15.0428 19.7977Z" fill="#03045E"/>
</g>
<mask id="mask3_267_2184" style="mask-type:luminance" maskUnits="userSpaceOnUse" x="16" y="6" width="22" height="41">
<path d="M16.5005 6.29004H37.9502V46.772H16.5005V6.29004Z" fill="white"/>
</mask>
<g mask="url(#mask3_267_2184)">
<path d="M36.5885 46.7699L21.8617 38.6355C18.3489 36.6947 16.4626 32.9839 16.6009 29.2098V24.5364C16.1861 20.5336 18.1363 16.4822 21.8617 14.4244L36.5885 6.29004C39.3095 11.2818 37.4955 17.548 32.5373 20.2879L21.2354 26.531L32.5373 32.7741C37.4955 35.5129 39.3095 41.7792 36.5885 46.7699Z" fill="#FFE53C"/>
</g>
</svg>
