<svg width="199" height="125" viewBox="0 0 199 125" fill="none" xmlns="http://www.w3.org/2000/svg">
<path d="M104.492 56.934C104.919 56.254 105.412 55.603 105.969 54.9837C106.523 54.3591 107.185 53.8003 107.953 53.3075C108.726 52.8173 109.605 52.4219 110.591 52.1268C111.575 51.8263 112.686 51.6734 113.926 51.6734C115.382 51.6734 117.074 51.9317 119.002 52.443L118.168 60.3286C117.696 60.2442 117.224 60.1388 116.754 60.0123C116.366 59.928 115.936 59.8542 115.467 59.7909C114.995 59.7224 114.57 59.6855 114.19 59.6855C112.818 59.6855 111.544 59.8805 110.37 60.2653C109.193 60.6527 108.177 61.1878 107.32 61.8677C106.46 62.5503 105.774 63.3726 105.262 64.3346C104.748 65.2992 104.492 66.335 104.492 67.4445V84.3015H95.6377V52.5063H103.658L104.492 56.934Z" fill="white"/>
<path d="M139.591 37.452H148.445V84.3014H139.591V37.452Z" fill="white"/>
<path d="M186.94 52.5063V84.3014H179.31L178.402 80.9069C177.162 82.5725 175.679 83.6847 173.949 84.2382C172.218 84.7917 170.408 85.071 168.524 85.071C166.258 85.071 164.171 84.6335 162.267 83.7638C160.367 82.8862 158.71 81.687 157.296 80.1689C155.887 78.6508 154.787 76.8771 153.993 74.8451C153.204 72.8158 152.811 70.6467 152.811 68.3406C152.811 66.0371 153.204 63.8681 153.993 61.8361C154.787 59.8067 155.887 58.0304 157.296 56.5123C158.71 54.9942 160.367 53.8003 162.267 52.928C164.171 52.0503 166.258 51.6102 168.524 51.6102C170.577 51.6102 172.461 51.9344 174.17 52.5801C175.88 53.2205 177.289 54.2431 178.402 55.6478L179.31 52.5063H186.94ZM178.086 68.4671C178.086 66.8014 177.859 65.4046 177.41 64.2713C176.959 63.1407 176.36 62.2235 175.616 61.5198C174.87 60.8109 173.994 60.2969 172.988 59.9807C171.981 59.6591 170.902 59.4957 169.749 59.4957C168.593 59.4957 167.514 59.7329 166.509 60.2021C165.501 60.6738 164.612 61.3063 163.839 62.0996C163.071 62.8877 162.472 63.8259 162.045 64.9144C161.615 66.0055 161.401 67.1467 161.401 68.3406C161.401 69.5793 161.615 70.731 162.045 71.7984C162.472 72.8685 163.071 73.7988 163.839 74.5921C164.612 75.3801 165.501 76.01 166.509 76.4792C167.514 76.9509 168.593 77.1855 169.749 77.1855C172.054 77.1855 174.012 76.4739 175.616 75.0454C177.22 73.6117 178.043 71.4189 178.086 68.4671Z" fill="white"/>
<mask id="mask0_595_6210" style="mask-type:luminance" maskUnits="userSpaceOnUse" x="120" y="40" width="16" height="9">
<path d="M120.837 40.8233H135.376V48.245H120.837V40.8233Z" fill="white"/>
</mask>
<g mask="url(#mask0_595_6210)">
<path d="M120.56 44.231C120.615 44.1124 120.718 44.0255 120.837 43.9991H120.852C120.889 43.9938 121.734 43.8963 122.206 43.9728C122.296 43.9886 122.38 44.036 122.446 44.1072L123.765 45.1904C124.113 45.1192 125.44 44.8478 126.997 44.5368L124.472 41.7141C124.401 41.6324 124.375 41.5243 124.411 41.4242C124.446 41.3267 124.533 41.2555 124.641 41.2397L125.865 41.0473C125.981 41.0289 126.15 41.0605 126.25 41.1237L130.664 43.812C131.828 43.588 132.783 43.4087 133.176 43.356C133.463 43.3139 133.785 43.3534 134.133 43.4641C134.709 43.6512 135.35 44.0597 135.392 44.3707C135.392 44.3839 135.371 45.6121 132.986 46.2235L124.266 47.9682C124.266 47.9682 124.05 48.0104 123.868 47.9867C123.559 47.9498 123.24 47.8628 122.918 47.7574L122.823 47.7284L122.691 47.6862L122.662 47.6757L122.665 47.6651C122.459 47.5966 122.338 47.4464 122.319 47.4227L120.568 44.6106L120.565 44.6C120.504 44.492 120.502 44.3549 120.557 44.2337L120.56 44.231Z" fill="#FFE53C"/>
</g>
<mask id="mask1_595_6210" style="mask-type:luminance" maskUnits="userSpaceOnUse" x="123" y="53" width="10" height="32">
<path d="M123.944 53.2499H132.268V84.4152H123.944V53.2499Z" fill="white"/>
</mask>
<g mask="url(#mask1_595_6210)">
<path d="M123.944 53.2499H132.268V84.402H123.944V53.2499Z" fill="white"/>
</g>
<mask id="mask2_595_6210" style="mask-type:luminance" maskUnits="userSpaceOnUse" x="12" y="23" width="27" height="70">
<path d="M12.019 23.2811H38.1879V92.1004H12.019V23.2811Z" fill="white"/>
</mask>
<g mask="url(#mask2_595_6210)">
<path d="M37.8925 49.4942V91.771H37.8819C23.6327 91.771 12.0745 80.2247 12.0745 65.9927V23.6976H12.085C26.3316 23.6976 37.8925 35.2597 37.8925 49.4942Z" fill="white"/>
</g>
<mask id="mask3_595_6210" style="mask-type:luminance" maskUnits="userSpaceOnUse" x="41" y="15" width="55" height="102">
<path d="M41.5649 15.725H95.5965V116.93H41.5649V15.725Z" fill="white"/>
</mask>
<g mask="url(#mask3_595_6210)">
<path d="M92.1666 116.925L55.0701 96.5888C46.2214 91.7367 41.4699 82.4596 41.8181 73.0244V61.341C40.7734 51.3339 45.6858 41.2055 55.0701 36.0609L92.1666 15.725C99.0208 28.2043 94.4514 43.87 81.9619 50.7198L53.4924 66.3275L81.9619 81.9351C94.4514 88.7823 99.0208 104.448 92.1666 116.925Z" fill="#FFE53C"/>
</g>
</svg>
