<svg width="30" height="18" viewBox="0 0 30 18" fill="none" xmlns="http://www.w3.org/2000/svg">
<rect width="30" height="18" fill="#1E1E1E"/>
<g clip-path="url(#clip0_0_1)">
<rect width="834" height="1194" transform="translate(-105 -932)" fill="white"/>
<g filter="url(#filter0_d_0_1)">
<g clip-path="url(#clip1_0_1)">
<rect x="-48" y="-670" width="720" height="756" rx="10" fill="white"/>
<rect x="-12.5" y="-6.5" width="55" height="31" rx="5.5" fill="white"/>
<rect x="-12.5" y="-6.5" width="55" height="31" rx="5.5" stroke="#F4F4F4"/>
<circle cx="9" cy="9" r="9" fill="#E80B26"/>
<circle cx="21" cy="9" r="9" fill="#F59D31"/>
<path d="M15 15.7083C16.8413 14.0603 18 11.6655 18 9C18 6.33447 16.8413 3.9397 15 2.29175C13.1587 3.9397 12 6.33447 12 9C12 11.6655 13.1587 14.0603 15 15.7083Z" fill="#FC6020"/>
</g>
</g>
</g>
<defs>
<filter id="filter0_d_0_1" x="-92" y="-712" width="812" height="848" filterUnits="userSpaceOnUse" color-interpolation-filters="sRGB">
<feFlood flood-opacity="0" result="BackgroundImageFix"/>
<feColorMatrix in="SourceAlpha" type="matrix" values="0 0 0 0 0 0 0 0 0 0 0 0 0 0 0 0 0 0 127 0" result="hardAlpha"/>
<feOffset dx="2" dy="4"/>
<feGaussianBlur stdDeviation="23"/>
<feComposite in2="hardAlpha" operator="out"/>
<feColorMatrix type="matrix" values="0 0 0 0 0 0 0 0 0 0 0 0 0 0 0 0 0 0 0.2 0"/>
<feBlend mode="normal" in2="BackgroundImageFix" result="effect1_dropShadow_0_1"/>
<feBlend mode="normal" in="SourceGraphic" in2="effect1_dropShadow_0_1" result="shape"/>
</filter>
<clipPath id="clip0_0_1">
<rect width="834" height="1194" fill="white" transform="translate(-105 -932)"/>
</clipPath>
<clipPath id="clip1_0_1">
<rect x="-48" y="-670" width="720" height="756" rx="10" fill="white"/>
</clipPath>
</defs>
</svg>
