<svg width="32" height="33" viewBox="0 0 32 33" fill="none" xmlns="http://www.w3.org/2000/svg">
<g id="medal-reward_svgrepo.com">
<path id="Vector" d="M31.6749 3.00792C31.4641 2.78923 31.1715 2.67554 30.8725 2.67554H21.4381C21.0346 2.67554 20.6633 2.90196 20.4688 3.26644L16.3231 11.0364C16.183 11.299 15.8171 11.299 15.677 11.0364L11.5312 3.26644C11.3367 2.90196 10.9653 2.67554 10.5619 2.67554H1.12755C0.828613 2.67554 0.535926 2.78923 0.325176 3.00792C-0.0314482 3.37795 -0.0956355 3.93037 0.137052 4.36646L8.60872 20.2435C9.06672 21.1021 10.29 21.0031 10.6165 20.0869C11.3818 17.939 13.3029 16.4276 15.5156 16.2358C15.828 16.2073 16.172 16.2073 16.4893 16.2363C18.688 16.4268 20.6023 17.9267 21.374 20.0605C21.7218 21.0224 22.9383 21.0925 23.3913 20.2435L31.8629 4.36653C32.0956 3.93037 32.0314 3.37795 31.6749 3.00792Z" fill="#51B3DA"/>
<path id="Vector_2" d="M31.6748 3.00792C31.4641 2.78923 31.1715 2.67554 30.8725 2.67554H21.4381C21.0346 2.67554 20.6632 2.90196 20.4687 3.26644L16.3231 11.0364C16.2531 11.1677 16.1266 11.2333 16 11.2333V16.2145C16.1649 16.2146 16.3305 16.2218 16.4893 16.2363C18.688 16.4269 20.6024 17.9268 21.3741 20.0606C21.7219 21.0223 22.9382 21.0927 23.3913 20.2436L31.8629 4.36659C32.0956 3.93037 32.0314 3.37795 31.6748 3.00792Z" fill="#238CC5"/>
<path id="Vector_3" d="M16 30.3245C11.6178 30.3245 8.05273 26.6476 8.05273 22.1281C8.05273 17.826 11.2704 14.3139 15.3253 13.9624C15.765 13.9223 16.2349 13.9223 16.6795 13.9629C20.7019 14.3116 23.9473 17.8 23.9473 22.1281C23.9473 26.6476 20.3821 30.3245 16 30.3245Z" fill="#FFDA79"/>
<path id="Vector_4" d="M16.675 13.9629C16.4539 13.9426 16.2266 13.9324 16 13.9324V30.3244C20.3531 30.3244 23.8945 26.6476 23.8945 22.1281C23.8945 17.8005 20.6712 14.3115 16.675 13.9629Z" fill="#FFD155"/>
<path id="Vector_5" d="M17.3504 25.7653L15.9996 25.0329L14.6487 25.7653C13.9867 26.1241 13.2102 25.543 13.3367 24.7822L13.5947 23.231L12.5018 22.1325C11.9663 21.5941 12.2624 20.653 13.0029 20.542L14.5132 20.3157L15.1886 18.9044C15.5196 18.2127 16.4791 18.2123 16.8103 18.9044L17.4857 20.3157L18.9961 20.542C19.7362 20.6529 20.033 21.5937 19.4972 22.1325L18.4043 23.231L18.6623 24.7822C18.7899 25.5487 18.0072 26.1214 17.3504 25.7653Z" fill="#FFC72D"/>
<path id="Vector_6" d="M10.3025 9.99772L6.39567 2.67554H3.87012L8.36386 11.0977C8.65855 11.65 9.33129 11.851 9.86648 11.5474C10.4019 11.2436 10.597 10.5498 10.3025 9.99772Z" fill="#80D0E1"/>
<path id="Vector_7" d="M23.6364 11.0978L28.1302 2.67554H25.6046L21.6978 9.99772C21.4032 10.5498 21.5984 11.2435 22.1338 11.5473C22.6689 11.851 23.3418 11.65 23.6364 11.0978Z" fill="#51B3DA"/>
<path id="Vector_8" d="M18.9966 20.5421L17.4862 20.3159L16.8108 18.9045C16.6452 18.5585 16.3226 18.3856 16 18.3857V25.033L17.3509 25.7654C18.0076 26.1215 18.7903 25.5488 18.6629 24.7825L18.4049 23.2313L19.4977 22.1328C20.0335 21.5939 19.7366 20.653 18.9966 20.5421Z" fill="#FFBE00"/>
</g>
</svg>
