<svg width="56" height="32" viewBox="0 0 56 32" fill="none" xmlns="http://www.w3.org/2000/svg">
<rect x="0.5" y="0.5" width="55" height="31" rx="5.5" fill="white"/>
<rect x="0.5" y="0.5" width="55" height="31" rx="5.5" stroke="#F4F4F4"/>
<path d="M28.6035 14.0641C28.5835 15.5597 30.0126 16.3944 31.0892 16.8907C32.1954 17.3999 32.5669 17.7263 32.5627 18.1816C32.5543 18.8785 31.6803 19.1861 30.8623 19.198C29.4353 19.219 28.6057 18.8336 27.946 18.5421L27.432 20.8175C28.0937 21.1061 29.3192 21.3577 30.59 21.3687C33.5728 21.3687 35.5244 19.9758 35.535 17.8162C35.5466 15.0755 31.5273 14.9237 31.5547 13.6986C31.5642 13.3272 31.9389 12.9308 32.7601 12.83C33.1664 12.7791 34.2884 12.7401 35.5603 13.2943L36.0595 11.0927C35.3756 10.8571 34.4964 10.6314 33.4018 10.6314C30.5942 10.6314 28.6194 12.0432 28.6035 14.0641ZM40.8568 10.8211C40.3121 10.8211 39.853 11.1217 39.6482 11.583L35.3872 21.2069H38.3679L38.9611 19.6563H42.6036L42.9477 21.2069H45.5748L43.2823 10.8211H40.8568ZM41.2737 13.6268L42.1339 17.5267H39.778L41.2737 13.6268ZM24.9895 10.8211L22.64 21.2069H25.4803L27.8288 10.8211H24.9895ZM20.7876 10.8211L17.8312 17.8901L16.6353 11.8795C16.4949 11.2085 15.9408 10.8211 15.3255 10.8211H10.4924L10.4248 11.1227C11.417 11.3264 12.5442 11.6548 13.2271 12.0063C13.6451 12.221 13.7644 12.4087 13.9016 12.9189L16.1667 21.2069H19.1685L23.7704 10.8211H20.7876Z" fill="url(#paint0_linear_404_4995)"/>
<defs>
<linearGradient id="paint0_linear_404_4995" x1="26.5847" y1="21.5841" x2="26.8787" y2="10.5559" gradientUnits="userSpaceOnUse">
<stop stop-color="#222357"/>
<stop offset="1" stop-color="#254AA5"/>
</linearGradient>
</defs>
</svg>
