<svg width="30" height="30" viewBox="0 0 30 30" fill="none" xmlns="http://www.w3.org/2000/svg">
<g id="wallet_svgrepo.com" clip-path="url(#clip0_404_5594)">
<path id="Vector" d="M23.4783 2.8125H2.6087C1.16796 2.8125 0 3.98046 0 5.4212V21.0734C0 22.5142 1.16796 23.6821 2.6087 23.6821H23.4783C24.919 23.6821 26.087 22.5142 26.087 21.0734V5.4212C26.087 3.98046 24.919 2.8125 23.4783 2.8125Z" fill="url(#paint0_linear_404_5594)"/>
<path id="Vector_2" d="M24.7826 5.42114H2.6087C1.16796 5.42114 0 6.5891 0 8.02984V23.6821C0 25.1227 1.16796 26.2907 2.6087 26.2907H24.7826C26.2234 26.2907 27.3913 25.1227 27.3913 23.6821V8.02984C27.3913 6.5891 26.2234 5.42114 24.7826 5.42114Z" fill="url(#paint1_linear_404_5594)"/>
<path id="Vector_3" d="M19.5654 15.8559C19.5654 18.017 21.3174 19.769 23.4785 19.769L30.0003 19.7673L29.9986 11.9429H23.4785C21.3174 11.9429 19.5654 13.6948 19.5654 15.8559Z" fill="url(#paint2_radial_404_5594)"/>
<path id="Vector_4" d="M23.4782 17.1602C24.1985 17.1602 24.7825 16.5762 24.7825 15.8559C24.7825 15.1355 24.1985 14.5515 23.4782 14.5515C22.7578 14.5515 22.1738 15.1355 22.1738 15.8559C22.1738 16.5762 22.7578 17.1602 23.4782 17.1602Z" fill="#03045E"/>
</g>
<defs>
<linearGradient id="paint0_linear_404_5594" x1="-8.18545" y1="34.8739" x2="-2.87014" y2="2.34353" gradientUnits="userSpaceOnUse">
<stop stop-color="#2635B5"/>
<stop offset="0.999999" stop-color="#03045E"/>
</linearGradient>
<linearGradient id="paint1_linear_404_5594" x1="0" y1="5.42114" x2="17.6706" y2="31.1297" gradientUnits="userSpaceOnUse">
<stop stop-color="#2635B5"/>
<stop offset="1" stop-color="#03045E"/>
</linearGradient>
<radialGradient id="paint2_radial_404_5594" cx="0" cy="0" r="1" gradientUnits="userSpaceOnUse" gradientTransform="translate(23.5736 14.2533) rotate(50.8861) scale(6.37132 8.49509)">
<stop stop-color="#3CE8FF"/>
<stop offset="1" stop-color="#00AAFF"/>
</radialGradient>
<clipPath id="clip0_404_5594">
<rect width="30" height="30" fill="white"/>
</clipPath>
</defs>
</svg>
